<svg width="80" height="80" viewBox="0 0 80 80" fill="none" xmlns="http://www.w3.org/2000/svg">
<path d="M40.0391 7.5H40.0393C48.7159 7.50406 56.8722 10.8879 63.0019 17.0135L63.0021 17.0138C69.132 23.1477 72.5003 31.3006 72.4922 39.9692M40.0391 7.5L71.9922 39.9688M40.0391 7.5C22.151 7.5 7.59406 22.0531 7.58594 39.9371C7.58187 45.6367 9.08246 51.2479 11.9186 56.1564M40.0391 7.5L11.9186 56.1564M72.4922 39.9692L71.9922 39.9688M72.4922 39.9692C72.4922 39.9691 72.4922 39.9691 72.4922 39.969L71.9922 39.9688M72.4922 39.9692C72.4839 57.8611 57.9313 72.4141 40.0312 72.4141H40.0309C34.6162 72.41 29.2522 71.0506 24.526 68.4701M71.9922 39.9688C71.9842 57.5847 57.6553 71.9141 40.0312 71.9141C34.6992 71.9101 29.4176 70.5713 24.7656 68.0312M24.526 68.4701L24.5264 68.4703L24.7656 68.0312M24.526 68.4701L24.7656 68.0312M24.526 68.4701L21.9991 67.0931M24.7656 68.0312L22.0703 66.5625M11.2188 69.125L11.7717 68.9944L11.7016 69.255L11.2188 69.125ZM11.2188 69.125L11.3664 68.5764L11.1039 68.6384L11.2188 69.125ZM22.0703 66.5625L22.1853 67.0491L21.9991 67.0931M22.0703 66.5625L19.0938 67.2656L19.2087 67.7522L21.9991 67.0931M22.0703 66.5625L21.8311 67.0015L21.9991 67.0931M11.9186 56.1564L12.3516 55.9062L11.9183 56.1558L11.9186 56.1564ZM23.6109 23.0877L23.6102 23.0885C23.5514 23.1524 23.4863 23.2217 23.4158 23.2966C22.391 24.3859 20.2422 26.67 20.2422 31.0703C20.2422 33.4138 21.0987 35.7469 22.0396 37.5995C22.965 39.4219 23.9506 40.7382 24.211 41.086L24.2206 41.0988L24.2209 41.0992C24.2619 41.1541 24.337 41.2652 24.4452 41.4253C25.7469 43.3503 31.8406 52.3624 41.0584 55.9958L40.875 56.4609L41.0584 55.9958C45.2584 57.6515 47.7517 58.3022 49.405 58.5249C50.7237 58.7026 51.5052 58.6109 52.2563 58.5227C52.4389 58.5013 52.6196 58.4801 52.8059 58.463L52.807 58.4629C53.6058 58.3914 55.0026 57.8378 56.3264 56.9828C57.6566 56.1237 58.7645 55.0552 59.1228 54.0507C59.5242 52.9257 59.7238 51.8832 59.7936 51.0804C59.8286 50.6785 59.8304 50.3443 59.8112 50.0951C59.7929 49.856 59.7588 49.7507 59.7522 49.7302C59.7511 49.7268 59.7508 49.7257 59.7513 49.7266L59.7502 49.7248C59.7 49.6405 59.5776 49.5281 59.2646 49.3568C59.0784 49.2549 58.8696 49.1544 58.6203 49.0343C58.4487 48.9517 58.2579 48.8599 58.042 48.7519L58.0413 48.7515C57.5463 48.5031 56.0728 47.7767 54.6084 47.071C53.1283 46.3577 51.7025 45.6875 51.2749 45.5326C50.8018 45.3611 50.5133 45.2835 50.2823 45.3098C50.1069 45.3297 49.8896 45.4208 49.6119 45.8391C48.926 46.8721 46.995 49.1389 46.4151 49.7984M23.6109 23.0877L60.1797 49.4688C59.9807 49.1349 59.5125 48.9093 58.8186 48.5748C58.6477 48.4924 58.4632 48.4035 58.2656 48.3047C57.2696 47.8047 52.3613 45.3945 51.4453 45.0625C50.5293 44.7305 49.8593 44.5625 49.1953 45.5625C48.5313 46.5625 46.6231 48.8048 46.0391 49.4688C45.4551 50.1368 44.875 50.2266 43.875 49.7266C43.7096 49.6432 43.4836 49.5447 43.2043 49.423C41.795 48.8089 39.0286 47.6033 35.8438 44.7656M23.6109 23.0877C24.4163 22.2085 25.3531 22 25.9062 22H25.9449C26.5985 22 27.2353 22 27.7918 22.023L27.7929 22.0231M23.6109 23.0877L27.7929 22.0231M46.4151 49.7984C46.4149 49.7986 46.4147 49.7988 46.4145 49.799L46.0394 49.4691L46.4155 49.7978C46.4153 49.798 46.4152 49.7982 46.4151 49.7984ZM46.4151 49.7984C46.0767 50.1852 45.6832 50.4674 45.1759 50.5317C44.6876 50.5935 44.1851 50.4406 43.6514 50.1738L43.65 50.1731C43.4966 50.0958 43.2818 50.0023 43.0129 49.8854C41.6168 49.2782 38.7648 48.0379 35.5111 45.1389M35.5111 45.1389C35.5111 45.139 35.5112 45.139 35.5112 45.139L35.8438 44.7656M35.5111 45.1389L35.8438 44.7656M35.5111 45.1389C32.4839 42.4421 30.4496 39.1257 29.8573 38.1115L29.857 38.111C29.5062 37.5086 29.455 36.9659 29.6386 36.4767C29.8023 36.0405 30.136 35.7096 30.3729 35.4746L30.3808 35.4668M35.8438 44.7656C32.8757 42.1216 30.8731 38.8594 30.2891 37.8594C29.7091 36.8634 30.2344 36.3163 30.7344 35.8203M30.3808 35.4668L30.7344 35.8203M30.3808 35.4668L30.3822 35.4653L30.7344 35.8203M30.3808 35.4668C30.6582 35.1894 30.9635 34.8156 31.2881 34.4182C31.4686 34.1973 31.655 33.9692 31.8458 33.7463L30.0625 23.25C30.5769 24.3947 31.445 26.5307 32.1327 28.2226C32.6321 29.4514 33.0363 30.4459 33.1406 30.6563C33.3886 31.1563 33.5586 31.7422 33.2266 32.4062C33.1814 32.4965 33.1393 32.5822 33.0989 32.6643C32.8418 33.1864 32.6552 33.5657 32.2266 34.0703C32.0545 34.2713 31.8771 34.4882 31.7003 34.7045C31.3634 35.1166 31.0282 35.5265 30.7344 35.8203M27.7929 22.0231C28.154 22.0373 28.4123 22.0558 28.6729 22.2071M27.7929 22.0231L28.6729 22.2071M28.6729 22.2071C28.9306 22.3567 29.2572 22.68 29.6066 23.4554L28.6729 22.2071ZM0.585937 39.9378V39.9377C0.593837 18.1899 18.2988 0.5 40.0469 0.5C50.6021 0.50395 60.5008 4.6102 67.951 12.0644C75.4013 19.5226 79.5001 29.4329 79.4922 39.9762C79.4803 61.7204 61.7829 79.4141 40.0391 79.4141H40.0237C33.4187 79.4101 26.9313 77.7595 21.1692 74.6158L21.0011 74.5241L20.8147 74.5681L0.701219 79.3205L5.90461 60.0365L5.95869 59.8361L5.8549 59.6563C2.40286 53.6764 0.581987 46.89 0.585937 39.9378ZM13.4709 58.851L13.5746 59.0308L14.0078 58.7813L13.5252 58.6506L13.4709 58.851Z" fill="#5423E5" stroke="#5423E5"/>
</svg>
