<svg width="80" height="80" viewBox="0 0 80 80" fill="none" xmlns="http://www.w3.org/2000/svg">
<path d="M69.4953 25.0001C68.3369 19.3281 65.2459 14.234 60.75 10.5871C56.2541 6.94017 50.6319 4.9666 44.8429 5.00319C39.054 5.03977 33.4572 7.08425 29.0077 10.7877C24.5582 14.4911 21.5319 19.6239 20.4453 25.3101C15.8312 26.1314 11.6923 28.6517 8.84484 32.3741C5.99737 36.0965 4.64801 40.7507 5.06286 45.4189C5.47772 50.0871 7.62667 54.4305 11.0859 57.5924C14.5452 60.7543 19.0637 62.5053 23.7503 62.5001H27.5003V57.5001H23.7503C20.1817 57.5094 16.7495 56.1298 14.1799 53.6535C11.6104 51.1771 10.1051 47.7981 9.98265 44.2316C9.8602 40.6651 11.1302 37.1908 13.5238 34.544C15.9174 31.8973 19.247 30.2856 22.8078 30.0501L24.9003 29.9076L25.1253 27.8251C25.6317 23.1747 27.7535 18.8493 31.1212 15.6026C34.4888 12.3558 38.8888 10.3934 43.5546 10.0573C48.2204 9.72118 52.8562 11.0326 56.6544 13.7632C60.4527 16.4937 63.1726 20.4703 64.3403 25.0001H69.4953Z" fill="#5423E5"/>
<path d="M67.4999 60.0001C65.7331 60.008 64.0269 60.6453 62.6874 61.7976L52.4349 55.6451C52.4524 55.4301 52.4999 55.2201 52.4999 55.0001C52.4999 54.7801 52.4524 54.5751 52.4349 54.3576L62.6899 48.2076C64.0293 49.3577 65.7345 49.9932 67.4999 50.0001C69.0584 50.011 70.5821 49.5396 71.8621 48.6504C73.142 47.7612 74.1155 46.4978 74.6491 45.0334C75.1827 43.5691 75.2502 41.9755 74.8423 40.4713C74.4345 38.9671 73.5713 37.626 72.3711 36.6317C71.1709 35.6375 69.6925 35.0389 68.1387 34.918C66.5849 34.7972 65.0317 35.16 63.6922 35.9567C62.3527 36.7534 61.2925 37.945 60.657 39.368C60.0214 40.791 59.8417 42.3759 60.1424 43.9051L50.3624 49.7726C49.3223 48.7025 47.9866 47.967 46.5262 47.6602C45.0658 47.3535 43.5471 47.4893 42.1643 48.0504C40.7816 48.6115 39.5976 49.5724 38.7639 50.81C37.9302 52.0477 37.4847 53.506 37.4844 54.9983C37.484 56.4905 37.9288 57.949 38.7619 59.1871C39.595 60.4252 40.7785 61.3866 42.161 61.9483C43.5435 62.5101 45.0622 62.6467 46.5227 62.3406C47.9833 62.0345 49.3193 61.2997 50.3599 60.2301L60.1424 66.1001C59.8554 67.6156 60.0428 69.1828 60.6793 70.5878C61.3158 71.9928 62.3702 73.1672 63.6988 73.9508C65.0274 74.7344 66.5654 75.0891 68.103 74.9663C69.6405 74.8436 71.1028 74.2494 72.2902 73.2649C73.4776 72.2805 74.3324 70.9536 74.7379 69.4654C75.1433 67.9772 75.0798 66.4001 74.5559 64.9494C74.032 63.4986 73.0733 62.2448 71.8105 61.3591C70.5477 60.4733 69.0424 59.9987 67.4999 60.0001ZM67.4999 40.0001C67.9944 40.0001 68.4777 40.1467 68.8889 40.4214C69.3 40.6961 69.6204 41.0866 69.8096 41.5434C69.9989 42.0002 70.0484 42.5029 69.9519 42.9878C69.8554 43.4728 69.6173 43.9182 69.2677 44.2679C68.9181 44.6175 68.4726 44.8556 67.9877 44.952C67.5027 45.0485 67.0001 44.999 66.5432 44.8098C66.0864 44.6206 65.696 44.3001 65.4213 43.889C65.1466 43.4779 64.9999 42.9945 64.9999 42.5001C64.9999 41.837 65.2633 41.2012 65.7322 40.7323C66.201 40.2635 66.8369 40.0001 67.4999 40.0001ZM44.9999 57.5001C44.5055 57.5001 44.0221 57.3535 43.611 57.0788C43.1999 56.8041 42.8795 56.4136 42.6902 55.9568C42.501 55.5 42.4515 54.9973 42.548 54.5124C42.6444 54.0274 42.8825 53.5819 43.2322 53.2323C43.5818 52.8827 44.0273 52.6446 44.5122 52.5481C44.9972 52.4517 45.4998 52.5012 45.9567 52.6904C46.4135 52.8796 46.8039 53.2 47.0786 53.6112C47.3533 54.0223 47.4999 54.5056 47.4999 55.0001C47.4999 55.6631 47.2366 56.299 46.7677 56.7679C46.2989 57.2367 45.663 57.5001 44.9999 57.5001ZM67.4999 70.0001C67.0055 70.0001 66.5221 69.8535 66.111 69.5788C65.6999 69.3041 65.3795 68.9136 65.1902 68.4568C65.001 68 64.9515 67.4973 65.048 67.0124C65.1444 66.5274 65.3825 66.0819 65.7322 65.7323C66.0818 65.3827 66.5273 65.1446 67.0122 65.0481C67.4972 64.9517 67.9998 65.0012 68.4566 65.1904C68.9135 65.3796 69.3039 65.7 69.5786 66.1112C69.8533 66.5223 69.9999 67.0056 69.9999 67.5001C69.9999 68.1631 69.7366 68.799 69.2677 69.2679C68.7989 69.7367 68.163 70.0001 67.4999 70.0001Z" fill="#5423E5"/>
</svg>
