<svg width="81" height="80" viewBox="0 0 81 80" fill="none" xmlns="http://www.w3.org/2000/svg">
<path d="M2.80434 0.0034002C2.09151 0.138971 1.44953 0.522092 0.991791 1.08509C0.534056 1.64808 0.290025 2.35472 0.302804 3.08019V12.3106C0.302804 13.1266 0.626979 13.9092 1.20401 14.4862C1.78105 15.0632 2.56368 15.3874 3.37973 15.3874C4.19578 15.3874 4.97841 15.0632 5.55544 14.4862C6.13248 13.9092 6.45665 13.1266 6.45665 12.3106V6.15699H12.6105C13.4265 6.15699 14.2092 5.83282 14.7862 5.25581C15.3632 4.6788 15.6874 3.89621 15.6874 3.08019C15.6874 2.26418 15.3632 1.48158 14.7862 0.904572C14.2092 0.327561 13.4265 0.0034002 12.6105 0.0034002H3.37973C3.28337 -0.0011334 3.18685 -0.0011334 3.0905 0.0034002C2.99414 -0.0011334 2.89762 -0.0011334 2.80127 0.0034002H2.80434ZM67.1305 0.0034002C66.3144 0.11805 65.5774 0.552166 65.0814 1.21025C64.5854 1.86833 64.3712 2.69647 64.4859 3.51248C64.6005 4.3285 65.0347 5.06555 65.6928 5.56149C66.3509 6.05743 67.1791 6.27164 67.9951 6.15699H74.149V12.3106C74.149 13.1266 74.4731 13.9092 75.0502 14.4862C75.6272 15.0632 76.4098 15.3874 77.2259 15.3874C78.0419 15.3874 78.8246 15.0632 79.4016 14.4862C79.9786 13.9092 80.3028 13.1266 80.3028 12.3106V3.08019C80.3028 2.26418 79.9786 1.48158 79.4016 0.904572C78.8246 0.327561 78.0419 0.0034002 77.2259 0.0034002H67.9951C67.8988 -0.0011334 67.8022 -0.0011334 67.7059 0.0034002C67.6106 -0.00103296 67.5151 -0.00103296 67.4197 0.0034002C67.3234 -0.00111532 67.2269 -0.00111532 67.1305 0.0034002V0.0034002ZM40.3028 3.08019C15.0751 3.08019 12.149 27.7191 12.7059 39.4263C10.8043 40.7832 9.53357 42.9831 9.53357 46.1553H3.37973C3.28337 46.1508 3.18685 46.1508 3.0905 46.1553C2.99414 46.1508 2.89762 46.1508 2.80127 46.1553C1.98521 46.232 1.23306 46.6297 0.710266 47.261C0.187472 47.8922 -0.0631358 48.7053 0.0135729 49.5213C0.0902817 50.3373 0.488024 51.0894 1.1193 51.6122C1.75058 52.135 2.56368 52.3856 3.37973 52.3089H77.2259C78.0419 52.3089 78.8246 51.9847 79.4016 51.4077C79.9786 50.8307 80.3028 50.0481 80.3028 49.2321C80.3028 48.4161 79.9786 47.6335 79.4016 47.0565C78.8246 46.4794 78.0419 46.1553 77.2259 46.1553H71.072C71.072 43.1339 69.9151 40.7832 67.8997 39.3279C68.432 27.5838 65.4597 3.08019 40.3028 3.08019ZM31.072 24.6177C31.072 34.3404 58.7643 30.239 58.7643 36.9249V44.2323L62.2259 43.8477C62.272 43.8446 62.349 43.8477 62.5151 43.8477C64.6997 43.8477 64.9182 44.9061 64.9182 46.1553H55.3982C55.5643 45.6815 55.6874 45.1492 55.6874 44.6169C55.6874 43.3929 55.2012 42.219 54.3356 41.3535C53.4701 40.4879 52.2961 40.0017 51.072 40.0017C49.848 40.0017 48.674 40.4879 47.8085 41.3535C46.9429 42.219 46.4567 43.3929 46.4567 44.6169C46.4567 45.1492 46.5797 45.6815 46.7459 46.1553H33.8597C34.0259 45.6815 34.149 45.1492 34.149 44.6169C34.149 43.3929 33.6627 42.219 32.7971 41.3535C31.9316 40.4879 30.7577 40.0017 29.5336 40.0017C28.3095 40.0017 27.1356 40.4879 26.27 41.3535C25.4045 42.219 24.9182 43.3929 24.9182 44.6169C24.9182 45.1492 25.0413 45.6815 25.2074 46.1553H15.6874C15.6874 45.3092 15.6967 43.8477 18.4751 43.8477L21.8413 44.2323V36.9249C21.8413 28.5468 27.4536 33.4943 31.072 24.6177ZM16.072 55.3857C22.0413 69.6589 30.2074 76.9232 40.3028 76.9232C50.4013 76.9232 58.5674 69.662 64.5336 55.3857H57.8013C53.0628 65.5852 47.1736 70.7696 40.3028 70.7696C33.432 70.7696 27.5459 65.5852 22.8013 55.3857H16.0751H16.072ZM3.0905 64.5207C2.96037 64.5442 2.8319 64.576 2.70588 64.616C2.01121 64.7717 1.39203 65.1635 0.95384 65.7245C0.51565 66.2856 0.285569 66.9812 0.302804 67.6928V76.9232C0.302804 77.7392 0.626979 78.5218 1.20401 79.0988C1.78105 79.6758 2.56368 80 3.37973 80H12.6105C13.4265 80 14.2092 79.6758 14.7862 79.0988C15.3632 78.5218 15.6874 77.7392 15.6874 76.9232C15.6874 76.1072 15.3632 75.3246 14.7862 74.7476C14.2092 74.1706 13.4265 73.8464 12.6105 73.8464H6.45665V67.6928C6.47219 67.2553 6.39417 66.8195 6.22781 66.4145C6.06145 66.0096 5.81057 65.6448 5.49195 65.3445C5.17332 65.0442 4.79429 64.8154 4.38016 64.6734C3.96603 64.5313 3.52635 64.4792 3.0905 64.5207V64.5207ZM76.9367 64.5207C76.8065 64.5442 76.6781 64.576 76.552 64.616C75.8574 64.7717 75.2382 65.1635 74.8 65.7245C74.3618 66.2856 74.1317 66.9812 74.149 67.6928V73.8464H67.9951C67.1791 73.8464 66.3964 74.1706 65.8194 74.7476C65.2424 75.3246 64.9182 76.1072 64.9182 76.9232C64.9182 77.7392 65.2424 78.5218 65.8194 79.0988C66.3964 79.6758 67.1791 80 67.9951 80H77.2259C78.0419 80 78.8246 79.6758 79.4016 79.0988C79.9786 78.5218 80.3028 77.7392 80.3028 76.9232V67.6928C80.3183 67.2553 80.2403 66.8195 80.074 66.4145C79.9076 66.0096 79.6567 65.6448 79.3381 65.3445C79.0195 65.0442 78.6404 64.8154 78.2263 64.6734C77.8122 64.5313 77.3725 64.4792 76.9367 64.5207V64.5207Z" fill="#5423E5"/>
</svg>
