<svg width="84" height="84" viewBox="0 0 84 84" fill="none" xmlns="http://www.w3.org/2000/svg">
<path d="M23.333 2H76.6663C79.6143 2 81.9997 4.38542 81.9997 7.33333V76.6667C81.9997 79.6146 79.6143 82 76.6663 82H23.333" stroke="#5423E5" stroke-width="3" stroke-miterlimit="10" stroke-linecap="round" stroke-linejoin="round"/>
<path d="M41.9997 23.3333C47.8907 23.3333 52.6663 18.5577 52.6663 12.6667C52.6663 6.77563 47.8907 2 41.9997 2C36.1086 2 31.333 6.77563 31.333 12.6667C31.333 18.5577 36.1086 23.3333 41.9997 23.3333Z" stroke="#5423E5" stroke-width="3" stroke-miterlimit="10" stroke-linecap="round" stroke-linejoin="round"/>
<path d="M12.667 28.6666C12.667 25.7187 15.0524 23.3333 18.0003 23.3333H34.0003H50.0003C55.8961 23.3333 60.667 28.1041 60.667 33.9999V39.3333H66.0003C68.9482 39.3333 71.3337 41.7187 71.3337 44.6666C71.3337 47.6145 68.9482 49.9999 66.0003 49.9999H55.3337C52.3857 49.9999 50.0003 47.6145 50.0003 44.6666" stroke="#5423E5" stroke-width="3" stroke-miterlimit="10" stroke-linecap="round" stroke-linejoin="round"/>
<path d="M50 36.6667V76.6667C50 79.6147 47.6146 82.0001 44.6667 82.0001C41.7188 82.0001 39.3333 79.6147 39.3333 76.6667V52.6673H39.0667L23.3333 68.6673H7.33333C4.38542 68.6673 2 66.282 2 63.3339C2 60.3862 4.38542 58.0006 7.33333 58.0006H18.9132L31.7892 45.1247V34.0001H23.3333V39.3334C23.3333 42.2813 20.9479 44.6667 18 44.6667C15.0521 44.6667 12.6667 42.2813 12.6667 39.3334V28.6667" stroke="#5423E5" stroke-width="3" stroke-miterlimit="10" stroke-linecap="round" stroke-linejoin="round"/>
<path d="M18 7.33333C18 4.38542 20.3854 2 23.3333 2" stroke="#5423E5" stroke-width="3" stroke-miterlimit="10" stroke-linecap="round" stroke-linejoin="round"/>
<path d="M18 76.6667C18 79.6147 20.3854 82.0001 23.3333 82.0001" stroke="#5423E5" stroke-width="3" stroke-miterlimit="10" stroke-linecap="round" stroke-linejoin="round"/>
<path d="M18 7.33325V23.3333" stroke="#5423E5" stroke-width="3" stroke-miterlimit="10" stroke-linecap="round" stroke-linejoin="round"/>
<path d="M18 76.6666V71.3333" stroke="#5423E5" stroke-width="3" stroke-miterlimit="10" stroke-linecap="round" stroke-linejoin="round"/>
<path d="M18 44.6667V58.0001" stroke="#5423E5" stroke-width="3" stroke-miterlimit="10" stroke-linecap="round" stroke-linejoin="round"/>
</svg>
