<svg width="84" height="84" viewBox="0 0 84 84" fill="none" xmlns="http://www.w3.org/2000/svg">
<path d="M82 23.8183C82 55.9772 65.6386 70.771 42 82C18.3616 70.771 2 55.9772 2 23.8183V2H82V23.8183Z" stroke="#5423E5" stroke-width="3" stroke-miterlimit="10" stroke-linecap="round" stroke-linejoin="round"/>
<path d="M24.667 44.6667C24.667 53.5105 31.7148 60.6667 40.4247 60.6667" stroke="#5423E5" stroke-width="3" stroke-miterlimit="10" stroke-linecap="round" stroke-linejoin="round"/>
<path d="M59.3329 44.6667C59.3329 53.5105 52.2849 60.6667 43.5752 60.6667" stroke="#5423E5" stroke-width="3" stroke-miterlimit="10" stroke-linecap="round" stroke-linejoin="round"/>
<path d="M34 51.0667C34 56.373 37.2 60.6667 42 60.6667" stroke="#5423E5" stroke-width="3" stroke-miterlimit="10" stroke-linecap="round" stroke-linejoin="round"/>
<path d="M34 51.0666C34 43.9916 39.725 38.2666 46.8 38.2666" stroke="#5423E5" stroke-width="3" stroke-miterlimit="10" stroke-linecap="round" stroke-linejoin="round"/>
<path d="M50 54.2666C50 57.804 46.8 60.6666 42 60.6666" stroke="#5423E5" stroke-width="3" stroke-miterlimit="10" stroke-linecap="round" stroke-linejoin="round"/>
<path d="M46.8003 38.2666C43.6003 47.8666 50.0003 47.8666 50.0003 54.2666" stroke="#5423E5" stroke-width="3" stroke-miterlimit="10" stroke-linecap="round" stroke-linejoin="round"/>
<path d="M24.667 44.6667C24.667 31.8667 40.4247 28.6667 34.1216 12.6667" stroke="#5423E5" stroke-width="3" stroke-miterlimit="10" stroke-linecap="round" stroke-linejoin="round"/>
<path d="M46.7271 31.8667C46.7271 21.2543 41.0889 12.6667 34.1211 12.6667" stroke="#5423E5" stroke-width="3" stroke-miterlimit="10" stroke-linecap="round" stroke-linejoin="round"/>
<path d="M59.3332 44.6668C59.3332 35.0668 53.0303 35.0668 53.0303 25.4668" stroke="#5423E5" stroke-width="3" stroke-miterlimit="10" stroke-linecap="round" stroke-linejoin="round"/>
<path d="M53.0306 25.4668C49.879 25.4668 49.879 31.8668 46.7275 31.8668" stroke="#5423E5" stroke-width="3" stroke-miterlimit="10" stroke-linecap="round" stroke-linejoin="round"/>
<path d="M43.5761 60.6667H40.4248" stroke="#5423E5" stroke-width="3" stroke-miterlimit="10" stroke-linecap="round" stroke-linejoin="round"/>
</svg>
