<svg width="124" height="80" viewBox="0 0 124 80" fill="none" xmlns="http://www.w3.org/2000/svg">
<path d="M6.56055 33.8052C6.44 33.8052 6.31782 33.7934 6.19498 33.7699L2.64323 33.0783C1.32766 32.701 0 31.5118 0 29.7059L0.00522663 26.0627C0.100293 24.8232 1.16301 22.9797 3.70399 22.9797H8.72322C12.0237 22.9797 16.2994 27.0594 17.1233 27.8771C17.876 28.6242 17.8803 29.8405 17.1328 30.5929C16.3857 31.3459 15.1694 31.3488 14.4171 30.6027C12.5729 28.7768 9.84474 26.8206 8.72322 26.8206H3.84152V29.4054L6.92186 29.9986C7.96335 30.1992 8.64514 31.2057 8.44423 32.2479C8.26716 33.1662 7.46221 33.8052 6.56055 33.8052Z" fill="#5423E5"/>
<path d="M13.8977 80C13.3221 80 12.3558 79.8795 11.5795 79.1817C10.9703 78.6338 10.6348 77.856 10.6348 76.9906V66.1377H14.476V76.15H25.5043V70.0357H29.3455V77.0282C29.3471 77.3019 29.2903 78.296 28.485 79.1062C28.0838 79.5097 27.3664 79.9912 26.224 79.9912H14.1627C14.0892 79.9961 13.9997 80 13.8977 80Z" fill="#5423E5"/>
<path d="M16.5875 30.5811L15.7861 26.8245C16.0589 26.7664 22.5469 25.3992 29.6789 25.3992H62.9938V29.2407H29.6789C22.9661 29.2407 16.6506 30.5677 16.5875 30.5811Z" fill="#5423E5"/>
<path d="M107.545 70.7613H16.4541L16.0392 70.5469C14.5982 69.8028 9.85829 67.1216 9.3761 63.8799C8.2585 56.3749 7.88574 43.4136 7.88574 40.6044C7.88574 35.9507 13.9053 28.4088 15.4476 26.5529C18.0248 21.6535 26.0195 6.56055 27.5618 4.9258C29.34 3.03983 33.6627 1.76183 34.5111 1.52498L34.7111 1.48055C35.073 1.42012 43.7803 0 61.8366 0C61.8915 0 61.9457 0.00228626 61.9996 0.00555314C62.0542 0.00228626 62.1074 0 62.1617 0C80.218 0 88.9259 1.42012 89.2882 1.48055L89.4878 1.52498C90.3362 1.76183 94.6586 3.03983 96.4368 4.9258C97.9794 6.56055 105.973 21.6535 108.551 26.5529C110.093 28.4088 116.113 35.9507 116.113 40.6044C116.113 43.4136 115.74 56.3739 114.623 63.8806C114.139 67.1223 109.4 69.8028 107.959 70.5469L107.545 70.7613ZM17.4018 66.9201H106.596C108.715 65.7456 110.713 64.0583 110.823 63.3138C111.909 56.0188 112.272 43.3531 112.272 40.604C112.272 38.0931 108.297 32.2258 105.475 28.8616L105.342 28.7035L105.246 28.5208C101.049 20.5363 94.6704 8.75033 93.6309 7.54845C92.8831 6.7559 90.2039 5.72488 88.5587 5.2538C87.5581 5.0996 78.8665 3.84348 62.2126 3.84087C62.1512 3.84544 62.095 3.84871 62.0369 3.84969L61.9993 3.85067L61.9617 3.84969C61.9016 3.84871 61.8432 3.84544 61.7853 3.84087C45.136 3.84348 36.4461 5.09895 35.4409 5.2538C33.7927 5.72684 31.1106 6.76016 30.356 7.56087C29.3282 8.75001 22.9497 20.5359 18.7517 28.5212L18.656 28.7035L18.523 28.8619C15.7011 32.2261 11.7263 38.0934 11.7263 40.6044C11.7263 43.3534 12.0883 56.0201 13.1748 63.3147C13.2872 64.0635 15.2839 65.7505 17.4018 66.9201Z" fill="#5423E5"/>
<path d="M117.439 33.8052C116.536 33.8052 115.732 33.1665 115.555 32.2475C115.354 31.2057 116.036 30.1989 117.078 29.9983L120.159 29.4047V26.8206H115.277C114.154 26.8206 111.426 28.7768 109.582 30.6036C108.829 31.3495 107.614 31.3439 106.867 30.5919C106.12 29.8389 106.124 28.6242 106.876 27.8771C107.7 27.0594 111.975 22.9797 115.277 22.9797H120.296C122.837 22.9797 123.9 24.8232 123.995 26.0627L124 26.2084V29.7059C124 31.5118 122.672 32.701 121.356 33.0783L121.19 33.1182L117.805 33.7702C117.682 33.7934 117.559 33.8052 117.439 33.8052Z" fill="#5423E5"/>
<path d="M110.101 79.9999C109.999 79.9999 109.91 79.996 109.836 79.9917H97.7742C96.6324 79.9917 95.915 79.5105 95.5138 79.1074C94.7086 78.2972 94.6517 77.3024 94.6534 77.0169V70.0362H98.4945V76.1505H109.523V66.1382H113.364V76.9911C113.364 77.8565 113.029 78.6343 112.42 79.1819C111.643 79.879 110.676 79.9999 110.101 79.9999Z" fill="#5423E5"/>
<path d="M107.413 30.5809C107.349 30.5675 101.034 29.2402 94.3205 29.2402H61.0059V25.3987H94.3205C101.453 25.3987 107.941 26.7659 108.214 26.824L107.413 30.5809Z" fill="#5423E5"/>
<path d="M67.5192 50.9956H31.4643C26.0305 50.9956 16.567 48.3537 16.1668 48.241C15.1459 47.9541 14.5507 46.8937 14.8378 45.8728C15.1243 44.8512 16.1861 44.258 17.206 44.5432C17.2994 44.5693 26.56 47.1541 31.4646 47.1541H67.5195C68.5799 47.1541 69.4401 48.0142 69.4401 49.0747C69.4398 50.1358 68.5796 50.9956 67.5192 50.9956Z" fill="#5423E5"/>
<path d="M42.1042 50.9957C41.4969 50.9957 40.8994 50.7082 40.5267 50.1721L37.2673 45.4919C37.2141 45.4178 35.8152 43.5076 32.7783 42.6128C29.4601 41.636 25.4886 40.5149 23.1162 39.8451L22.208 39.5887C21.1309 39.2839 20.4883 39.509 20.3302 39.5776L20.1701 39.704L20.0861 39.7024L16.9623 41.0794C15.9918 41.5093 14.8585 41.0679 14.4305 40.0973C14.0022 39.1267 14.4423 37.9928 15.4125 37.5652L18.4543 36.2238C19.0306 35.9144 20.7539 35.1876 23.2524 35.8922L24.1599 36.1483C26.5405 36.8203 30.5248 37.9448 33.8635 38.9281C38.2621 40.2231 40.3391 43.1793 40.4254 43.3041L43.6792 47.9771C44.2852 48.8474 44.0712 50.0447 43.2009 50.651C42.8658 50.8843 42.4832 50.9957 42.1042 50.9957Z" fill="#5423E5"/>
<path d="M92.5357 50.9956H56.4811C55.4204 50.9956 54.5605 50.1354 54.5605 49.0747C54.5605 48.0142 55.4207 47.1541 56.4811 47.1541H92.5357C97.4465 47.1541 106.701 44.5693 106.794 44.5432C107.815 44.2573 108.876 44.8512 109.163 45.8721C109.45 46.8937 108.855 47.9541 107.834 48.2409C107.434 48.3537 97.9702 50.9956 92.5357 50.9956Z" fill="#5423E5"/>
<path d="M81.8955 50.9955C81.5166 50.9955 81.134 50.8838 80.7995 50.6509C79.9292 50.0449 79.7152 48.8472 80.3212 47.9769L83.5809 43.2968C83.6619 43.1795 85.739 40.2233 90.1362 38.928C93.4845 37.9417 97.4759 36.8156 99.8607 36.1423L100.748 35.8921C103.247 35.1868 104.969 35.914 105.546 36.2237L108.589 37.5651C109.559 37.9927 109.999 39.126 109.571 40.0972C109.143 41.0678 108.011 41.5092 107.039 41.0792L103.659 39.5729C103.485 39.4994 102.847 39.2913 101.792 39.5882L100.904 39.8395C98.5272 40.5105 94.5491 41.633 91.2225 42.6124C88.1856 43.5068 86.7864 45.4173 86.7285 45.4983L83.4731 50.1716C83.0994 50.708 82.5025 50.9955 81.8955 50.9955Z" fill="#5423E5"/>
<path d="M61.8962 50.5768C60.8354 50.5768 59.9756 49.7163 59.9756 48.6559V45.638C59.9756 44.5772 60.8358 43.717 61.8962 43.717C62.9566 43.717 63.8168 44.5772 63.8168 45.638V48.6559C63.8171 49.7163 62.9566 50.5768 61.8962 50.5768Z" fill="#5423E5"/>
<path d="M84.8748 60.6826H38.9173C37.8569 60.6826 36.9971 59.8224 36.9971 58.7617C36.9971 57.7012 37.8569 56.8411 38.9173 56.8411H84.8748C85.9356 56.8411 86.7957 57.7012 86.7957 58.7617C86.7957 59.8224 85.9356 60.6826 84.8748 60.6826Z" fill="#5423E5"/>
<path d="M26.0635 60.6826C25.9704 60.6826 25.8757 60.6761 25.7799 60.6617L22.0759 60.1128C21.0266 59.9573 20.302 58.9809 20.4575 57.9316C20.6124 56.8829 21.5859 56.1537 22.6385 56.3135L26.3425 56.8623C27.3915 57.0178 28.1164 57.994 27.9609 59.0433C27.8204 59.9969 27.0004 60.6826 26.0635 60.6826Z" fill="#5423E5"/>
<path d="M97.729 60.6827C96.7923 60.6827 95.9727 59.997 95.8316 59.043C95.6761 57.9937 96.4006 57.0176 97.45 56.8621L101.154 56.3132C102.209 56.1535 103.18 56.8826 103.335 57.9313C103.491 58.9806 102.766 59.9571 101.717 60.1126L98.0125 60.6614C97.9171 60.6761 97.8221 60.6827 97.729 60.6827Z" fill="#5423E5"/>
</svg>
