<svg width="89" height="80" viewBox="0 0 89 80" fill="none" xmlns="http://www.w3.org/2000/svg">
<path d="M41.843 80C41.7008 80 41.5604 79.9825 41.4214 79.9478C28.5088 76.6691 17.3946 67.3958 11.6909 55.1458C11.292 54.2888 11.6632 53.2721 12.5202 52.8731C13.3859 52.4673 14.3971 52.8454 14.796 53.7024C20.007 64.8942 30.0939 73.3978 41.8397 76.5204C52.0568 73.7621 60.758 67.3543 66.3782 58.4453C66.8814 57.6469 67.943 57.4078 68.7371 57.911C69.5387 58.4143 69.7778 59.4721 69.2713 60.27C63.1096 70.0466 53.5209 77.0339 42.271 79.9478C42.1311 79.982 41.9875 80 41.843 80ZM9.1154 27.2312C8.17025 27.2312 7.40332 26.468 7.40332 25.5205V1.65483C7.40332 0.877286 7.92692 0.197619 8.67815 0L41.6943 0.0761574C41.9787 -2.73008e-05 42.2807 -2.73008e-05 42.5688 0.0761574L75.1108 0C75.8602 0.197619 76.3842 0.877286 76.3842 1.65483V24.1118C76.3842 25.0592 75.621 25.8225 74.674 25.8225C73.7265 25.8225 72.9638 25.0592 72.9638 24.1118V2.97351L42.132 3.50077L10.8279 2.97351V25.5205C10.8275 26.468 10.0606 27.2312 9.1154 27.2312Z" fill="#5423E5"/>
<path d="M5.94464 49.2236C5.38272 49.2236 4.8328 48.9456 4.50498 48.4396L0.274188 41.8928C-0.237404 41.1014 -0.0120858 40.0436 0.775157 39.5301L35.0158 17.1738C35.8118 16.6535 36.8683 16.8788 37.3854 17.6697C37.9025 18.4607 37.6804 19.5226 36.889 20.0393L4.07465 41.4657L7.38107 46.5798C7.89451 47.3744 7.66549 48.4359 6.87271 48.9456C6.58506 49.1336 6.2623 49.2236 5.94464 49.2236Z" fill="#5423E5"/>
<path d="M13.4974 50.7327C12.9355 50.7327 12.3837 50.4552 12.0578 49.9455L9.13643 45.4146C8.62299 44.6199 8.852 43.5621 9.64617 43.0487C10.4426 42.5389 11.5005 42.7643 12.0125 43.5621L14.9339 48.093C15.4473 48.8877 15.2183 49.946 14.4241 50.4594C14.136 50.6422 13.8146 50.7327 13.4974 50.7327Z" fill="#5423E5"/>
<path d="M26.2859 53.1507C25.7014 53.1507 25.1307 52.8492 24.8116 52.3081C24.3296 51.4959 24.5983 50.445 25.4137 49.9625C27.8632 48.5122 30.6418 47.7213 33.6726 47.6105C34.5536 47.5583 35.4142 48.3114 35.447 49.2579C35.4816 50.2017 34.7443 50.9963 33.7991 51.0309C31.3464 51.121 29.1103 51.7558 27.1553 52.9111C26.8829 53.0708 26.5823 53.1507 26.2859 53.1507Z" fill="#5423E5"/>
<path d="M71.4991 57.0781C70.8019 57.0781 70.1425 56.6445 69.8895 55.9505C67.6067 49.6854 64.0713 44.9564 59.3843 41.8933C58.8122 41.5045 58.0074 41.1231 57.2022 41.3064C56.4422 41.4976 55.9634 42.1495 55.696 42.6597C54.659 44.7343 53.32 46.053 51.4916 46.7816C50.6207 47.1357 49.6179 46.7054 49.2679 45.8277C48.9179 44.9499 49.3441 43.954 50.2218 43.604C51.2519 43.1907 51.9773 42.4414 52.6505 41.1024C53.5005 39.4757 54.8151 38.3796 56.3697 37.9871C57.4797 37.7128 59.249 37.6574 61.2857 39.0454C66.5761 42.5042 70.5627 47.8057 73.1086 54.7787C73.4314 55.667 72.9733 56.6487 72.0854 56.9746C71.8915 57.0434 71.6934 57.0781 71.4991 57.0781Z" fill="#5423E5"/>
<path d="M87.0078 45.4937C86.4704 45.4937 85.9394 45.2439 85.6065 44.7688C80.118 36.9666 72.0378 30.8325 61.5847 26.5343C59.0628 25.4931 57.6333 23.0995 56.78 21.3888C56.3566 20.5425 56.7001 19.5152 57.5432 19.0922C58.3859 18.6688 59.4197 19.0087 59.8399 19.855C60.8113 21.7942 61.7791 22.9116 62.8891 23.3692C73.953 27.9181 82.5397 34.4538 88.4096 42.7977C88.9508 43.5715 88.7665 44.64 87.9931 45.1843C87.6949 45.393 87.3513 45.4937 87.0078 45.4937Z" fill="#5423E5"/>
<path d="M47.7362 42.1742C47.1586 42.1742 46.5948 41.8791 46.2721 41.3519C45.7813 40.5438 46.0361 39.4893 46.8446 38.9998C50.8741 36.5434 52.1614 31.6865 50.7836 24.1512C50.6451 23.4018 51.02 22.6524 51.7029 22.3126C53.8785 21.2234 55.7587 20.1337 57.4412 19.1452C58.2635 18.67 59.308 18.9438 59.7868 19.7556C60.2651 20.571 59.9913 21.6223 59.1764 22.1007C57.7293 22.9475 56.147 23.8668 54.3606 24.7967C55.6059 33.0847 53.6805 38.8438 48.626 41.9212C48.3485 42.0906 48.0396 42.1742 47.7362 42.1742Z" fill="#5423E5"/>
<path d="M71.4993 57.0782C70.7952 57.0782 70.1359 56.6377 69.8861 55.9368C69.5702 55.0447 70.0352 54.0668 70.9273 53.751C76.8872 51.6349 81.6993 48.0408 85.6337 42.7601C86.2025 42.0001 87.2714 41.8477 88.031 42.4096C88.7873 42.9752 88.9466 44.0474 88.3814 44.8069C84.0273 50.6459 78.6916 54.6283 72.0723 56.9771C71.8844 57.0436 71.69 57.0782 71.4993 57.0782Z" fill="#5423E5"/>
<path d="M11.7854 51.8394C11.2267 51.8394 10.6786 51.5651 10.3489 51.0618C9.83364 50.2672 10.0557 49.2094 10.8485 48.6922L20.4155 42.4506C21.2032 41.927 22.2647 42.1556 22.785 42.947C23.3003 43.7416 23.0782 44.7994 22.2855 45.3166L12.719 51.5582C12.4304 51.7493 12.1063 51.8394 11.7854 51.8394Z" fill="#5423E5"/>
<path d="M5.94414 49.2236C5.38546 49.2236 4.83739 48.9493 4.50956 48.4461C3.99243 47.6551 4.21452 46.5932 5.00546 46.0765L17.4914 37.9201C18.2824 37.396 19.3439 37.6251 19.861 38.416C20.3782 39.2069 20.1561 40.2689 19.3651 40.7856L6.87914 48.9419C6.58964 49.1336 6.26504 49.2236 5.94414 49.2236Z" fill="#5423E5"/>
<path d="M26.2849 53.1505C25.7262 53.1505 25.1781 52.8762 24.8503 52.3734L12.6658 33.7428C12.1487 32.9518 12.3708 31.8898 13.1622 31.3732C13.9531 30.8597 15.0164 31.0781 15.5317 31.8691L27.7162 50.4997C28.2329 51.2906 28.0108 52.3526 27.2198 52.8693C26.9322 53.0572 26.6058 53.1505 26.2849 53.1505Z" fill="#5423E5"/>
<path d="M41.8458 22.3813C39.1378 22.3813 36.7996 21.3059 34.9624 20.0048C34.1922 19.4567 34.0099 18.3883 34.5565 17.6181C35.1014 16.8442 36.168 16.6669 36.9432 17.2086C39.5556 19.0647 43.7033 20.8303 49.5349 14.8907C50.0557 14.3602 50.8605 14.2276 51.5231 14.5573C51.8528 14.7208 52.158 14.887 52.46 15.0537L53.2403 15.4697C54.0829 15.8963 54.42 16.9264 53.9929 17.7695C53.5626 18.609 52.5361 18.9423 51.693 18.5226L51.0549 18.1828C47.7 21.2782 44.5848 22.3813 41.8458 22.3813Z" fill="#5423E5"/>
<path d="M43.8084 22.2358C43.7253 22.2358 43.6385 22.2284 43.5535 22.2146C42.6185 22.0761 41.9735 21.202 42.1139 20.2684C42.3706 18.5508 42.2076 16.449 41.642 14.1903C41.4111 13.2742 41.9684 12.3443 42.8859 12.112C43.8019 11.89 44.7351 12.438 44.9623 13.3573C45.6475 16.0875 45.828 18.5822 45.5002 20.7745C45.3732 21.625 44.6427 22.2358 43.8084 22.2358Z" fill="#5423E5"/>
<path d="M42.0258 56.9427C37.6371 56.9427 33.6279 54.2088 32.119 49.8862C31.8087 48.9913 32.2787 48.0162 33.1722 47.704C34.0532 47.385 35.0403 47.8633 35.3524 48.7549C36.5705 52.2451 40.1904 54.2153 43.7951 53.2997C45.7519 52.8103 47.3684 51.5825 48.2304 49.9379C48.6677 49.0989 49.7084 48.7863 50.5414 49.2162C51.3776 49.6534 51.7035 50.6905 51.2631 51.5271C49.9481 54.0352 47.53 55.8914 44.6262 56.6232C43.7549 56.8384 42.8823 56.9427 42.0258 56.9427Z" fill="#5423E5"/>
<path d="M33.734 51.0309C33.3734 51.0309 33.0091 50.9201 32.6984 50.6841C31.9476 50.1116 31.8017 49.0362 32.3738 48.2831C36.2075 43.2457 41.2588 40.0506 47.3877 38.7845C48.0434 38.6562 48.699 38.9023 49.0943 39.4194C50.2532 40.9389 51.3179 42.5485 52.3416 44.3423C52.813 45.1642 52.5254 46.2086 51.7067 46.6773C50.8913 47.1561 49.84 46.8643 49.3718 46.0424C48.6187 44.7242 47.8448 43.5167 47.0262 42.3786C42.2026 43.61 38.1934 46.2885 35.0971 50.3581C34.7614 50.7986 34.2512 51.0309 33.734 51.0309Z" fill="#5423E5"/>
<path d="M43.6066 51.1352C43.4349 51.1352 43.2599 51.1075 43.0881 51.0517C42.1859 50.7672 41.6882 49.8027 41.9763 48.9009C42.5936 46.958 42.6753 44.5847 42.2191 41.8481C42.0649 40.9149 42.6943 40.0335 43.6274 39.877C44.5624 39.7518 45.442 40.3558 45.598 41.2857C46.1429 44.5644 46.0215 47.4751 45.2375 49.9417C45.0066 50.6703 44.3334 51.1352 43.6066 51.1352Z" fill="#5423E5"/>
<path d="M28.5028 44.4877C27.9442 44.4877 27.3979 44.2135 27.0683 43.7106L21.5294 35.2523C21.0127 34.465 21.233 33.4031 22.0221 32.8864L29.3732 28.0535C30.1641 27.5332 31.2243 27.7553 31.7446 28.5425C32.2636 29.3339 32.0447 30.3954 31.2538 30.9125L25.3299 34.8086L29.0006 40.4116L39.2528 33.7849C39.7713 33.4243 39.8304 32.7479 39.563 32.3453L37.0286 28.3906C36.843 28.0891 36.5567 27.9917 36.4025 27.957C36.113 27.8979 35.8092 27.9399 35.5927 28.0891C34.8049 28.6094 33.7416 28.3975 33.218 27.6103C32.6939 26.8263 32.9072 25.7611 33.6949 25.237C34.6835 24.5814 35.9394 24.356 37.1348 24.6123C38.3182 24.8722 39.31 25.5662 39.9278 26.5691L42.429 30.4716C43.749 32.4492 43.1853 35.225 41.1574 36.6301L29.4309 44.2107C29.1433 44.3977 28.8224 44.4877 28.5028 44.4877Z" fill="#5423E5"/>
<path d="M25.6821 40.2587C25.1221 40.2587 24.574 39.9807 24.2443 39.4783C23.729 38.6837 23.9548 37.6254 24.7471 37.1083L32.8029 31.8733C33.5975 31.3598 34.6553 31.5851 35.1724 32.3765C35.6877 33.1712 35.4619 34.229 34.6696 34.7461L26.6139 39.9812C26.3258 40.1686 26.0012 40.2587 25.6821 40.2587Z" fill="#5423E5"/>
<path d="M75.8078 46.2224C75.2251 46.2224 74.6839 45.9274 74.3995 45.3548L74.2984 45.1535C73.8754 44.3072 74.2185 43.2798 75.0616 42.8569C75.9047 42.4298 76.9353 42.7701 77.3587 43.6197C77.7816 44.4665 77.4903 45.5935 76.6439 46.0169C76.3738 46.1568 76.0857 46.2224 75.8078 46.2224Z" fill="#5423E5"/>
<path d="M62.9203 35.4468C62.3371 35.4468 61.796 35.1517 61.5115 34.5792L61.4109 34.3779C60.9875 33.5315 61.331 32.5042 62.1737 32.0812C63.0131 31.6541 64.0473 31.9944 64.4707 32.844C64.8941 33.6908 64.6023 34.8179 63.756 35.2413C63.4859 35.3812 63.1978 35.4468 62.9203 35.4468Z" fill="#5423E5"/>
</svg>
