<svg width="80" height="80" viewBox="0 0 80 80" fill="none" xmlns="http://www.w3.org/2000/svg">
<path d="M36.667 49.9999H43.3337V56.6666H36.667V49.9999ZM36.667 23.3333H43.3337V43.3333H36.667V23.3333Z" fill="#5423E5"/>
<path d="M56.667 3.36659L23.3337 3.33325C19.667 3.33325 16.667 6.33325 16.667 9.99992V69.9999C16.667 73.6666 19.667 76.6666 23.3337 76.6666H56.667C60.3337 76.6666 63.3337 73.6666 63.3337 69.9999V9.99992C63.3337 6.33325 60.3337 3.36659 56.667 3.36659ZM56.667 69.9999H23.3337V66.6666H56.667V69.9999ZM56.667 59.9999H23.3337V19.9999H56.667V59.9999ZM56.667 13.3333H23.3337V9.99992H56.667V13.3333Z" fill="#5423E5"/>
</svg>
