<svg width="69" height="80" viewBox="0 0 69 80" fill="none" xmlns="http://www.w3.org/2000/svg">
<path d="M28.5711 41.6857L21.1711 34.2857L17.1426 38.3143L28.5711 49.7429L51.4283 26.8857L47.3997 22.8572L28.5711 41.6857Z" fill="#5423E5"/>
<path d="M34.2857 80L16.64 70.5914C11.6095 67.9152 7.40278 63.9196 4.47122 59.0335C1.53966 54.1474 -0.00603732 48.5552 1.77216e-05 42.8571V5.71429C0.00153051 4.19923 0.604056 2.74665 1.67536 1.67535C2.74667 0.604038 4.19924 0.00151279 5.7143 0H62.8572C64.3722 0.00151279 65.8248 0.604038 66.8961 1.67535C67.9674 2.74665 68.5699 4.19923 68.5714 5.71429V42.8571C68.5775 48.5552 67.0318 54.1474 64.1002 59.0335C61.1687 63.9196 56.9619 67.9152 51.9314 70.5914L34.2857 80ZM5.7143 5.71429V42.8571C5.70956 47.5194 6.9746 52.095 9.37363 56.0927C11.7727 60.0904 15.2151 63.3593 19.3314 65.5486L34.2857 73.5229L49.24 65.5514C53.3568 63.362 56.7995 60.0926 59.1986 56.0944C61.5976 52.0961 62.8624 47.5199 62.8572 42.8571V5.71429H5.7143Z" fill="#5423E5"/>
</svg>
