<svg width="80" height="80" viewBox="0 0 80 80" fill="none" xmlns="http://www.w3.org/2000/svg">
<path d="M8.88889 0C3.97778 0 0 3.97778 0 8.88889V71.1111C0 76.0222 3.97778 80 8.88889 80H71.1111C76.0222 80 80 76.0222 80 71.1111V8.88889C80 3.97778 76.0222 0 71.1111 0H8.88889ZM8.88889 8.88889H71.1111V71.1111H8.88889V8.88889ZM21.2413 14.7396C17.4324 14.7396 15.1476 17.0292 15.1476 20.0781C15.1476 23.127 17.4327 25.408 20.8594 25.408C24.6683 25.408 26.9531 23.127 26.9531 20.0781C26.9531 17.0292 24.668 14.7396 21.2413 14.7396ZM15.4514 31.1111V62.2222H26.6667V31.1111H15.4514ZM35.9201 31.1111V62.2222H47.1354V45.217C47.1354 40.1548 50.7472 39.4271 51.8316 39.4271C52.916 39.4271 55.816 40.5148 55.816 45.217V62.2222H66.6667V45.217C66.6667 35.4526 62.3277 31.1111 56.901 31.1111C51.4744 31.1111 48.5799 32.9181 47.1354 35.4514V31.1111H35.9201Z" fill="#5423E5"/>
</svg>
