<svg width="80" height="80" viewBox="0 0 80 80" fill="none" xmlns="http://www.w3.org/2000/svg">
<path d="M22.2222 0C9.96889 0 0 9.96889 0 22.2222V57.7778C0 70.0311 9.96889 80 22.2222 80H57.7778C70.0311 80 80 70.0311 80 57.7778V22.2222C80 9.96889 70.0311 0 57.7778 0H22.2222ZM22.2222 8.88889H57.7778C65.1289 8.88889 71.1111 14.8711 71.1111 22.2222V57.7778C71.1111 65.1289 65.1289 71.1111 57.7778 71.1111H22.2222C14.8711 71.1111 8.88889 65.1289 8.88889 57.7778V22.2222C8.88889 14.8711 14.8711 8.88889 22.2222 8.88889ZM62.2222 13.3333C61.0435 13.3333 59.913 13.8016 59.0795 14.6351C58.246 15.4686 57.7778 16.599 57.7778 17.7778C57.7778 18.9565 58.246 20.087 59.0795 20.9205C59.913 21.754 61.0435 22.2222 62.2222 22.2222C63.401 22.2222 64.5314 21.754 65.3649 20.9205C66.1984 20.087 66.6667 18.9565 66.6667 17.7778C66.6667 16.599 66.1984 15.4686 65.3649 14.6351C64.5314 13.8016 63.401 13.3333 62.2222 13.3333ZM40 17.7778C27.7467 17.7778 17.7778 27.7467 17.7778 40C17.7778 52.2533 27.7467 62.2222 40 62.2222C52.2533 62.2222 62.2222 52.2533 62.2222 40C62.2222 27.7467 52.2533 17.7778 40 17.7778ZM40 26.6667C47.3511 26.6667 53.3333 32.6489 53.3333 40C53.3333 47.3511 47.3511 53.3333 40 53.3333C32.6489 53.3333 26.6667 47.3511 26.6667 40C26.6667 32.6489 32.6489 26.6667 40 26.6667Z" fill="#5423E5"/>
</svg>
