<svg width="580" height="463" viewBox="0 0 580 463" fill="none" xmlns="http://www.w3.org/2000/svg">
<g clip-path="url(#clip0_74_42)">
<path d="M100.101 54C96.9373 54.6016 94.0885 56.3018 92.0573 58.8002C90.0261 61.2986 88.9432 64.4345 88.9999 67.6539V108.615C88.9999 112.237 90.4385 115.71 92.9991 118.27C95.5597 120.831 99.0326 122.269 102.654 122.269C106.275 122.269 109.748 120.831 112.309 118.27C114.869 115.71 116.308 112.237 116.308 108.615V81.3077H143.615C147.237 81.3077 150.709 79.8692 153.27 77.3086C155.831 74.748 157.269 71.2751 157.269 67.6539C157.269 64.0326 155.831 60.5597 153.27 57.9991C150.709 55.4385 147.237 54 143.615 54H102.654C102.226 53.9799 101.798 53.9799 101.37 54C100.943 53.9799 100.514 53.9799 100.087 54H100.101ZM385.548 54C381.927 54.5088 378.656 56.4353 376.455 59.3556C374.254 62.276 373.304 65.951 373.812 69.5722C374.321 73.1934 376.248 76.4642 379.168 78.6651C382.088 80.8659 385.763 81.8165 389.385 81.3077H416.692V108.615C416.692 112.237 418.131 115.71 420.691 118.27C423.252 120.831 426.725 122.269 430.346 122.269C433.967 122.269 437.44 120.831 440.001 118.27C442.561 115.71 444 112.237 444 108.615V67.6539C444 64.0326 442.561 60.5597 440.001 57.9991C437.44 55.4385 433.967 54 430.346 54H389.385C388.957 53.9799 388.529 53.9799 388.101 54C387.678 53.9803 387.254 53.9803 386.831 54C386.404 53.98 385.975 53.98 385.548 54V54ZM266.5 67.6539C154.552 67.6539 141.567 176.994 144.039 228.947C135.601 234.968 129.961 244.731 129.961 258.808H102.654C102.226 258.788 101.798 258.788 101.37 258.808C100.943 258.788 100.514 258.788 100.087 258.808C96.4656 259.148 93.128 260.913 90.8081 263.714C88.4882 266.516 87.3761 270.124 87.7165 273.745C88.0569 277.366 89.8219 280.704 92.6231 283.024C95.4244 285.344 99.0326 286.456 102.654 286.115H430.346C433.967 286.115 437.44 284.677 440.001 282.116C442.561 279.556 444 276.083 444 272.462C444 268.84 442.561 265.367 440.001 262.807C437.44 260.246 433.967 258.808 430.346 258.808H403.038C403.038 245.4 397.905 234.968 388.961 228.51C391.323 176.393 378.134 67.6539 266.5 67.6539ZM225.538 163.231C225.538 206.377 348.423 188.176 348.423 217.846V250.274L363.784 248.567C363.988 248.554 364.33 248.567 365.067 248.567C374.761 248.567 375.731 253.264 375.731 258.808H333.486C334.223 256.705 334.769 254.343 334.769 251.981C334.769 246.549 332.611 241.34 328.77 237.499C324.93 233.658 319.72 231.5 314.288 231.5C308.857 231.5 303.647 233.658 299.806 237.499C295.965 241.34 293.808 246.549 293.808 251.981C293.808 254.343 294.354 256.705 295.091 258.808H237.909C238.646 256.705 239.192 254.343 239.192 251.981C239.192 246.549 237.034 241.34 233.194 237.499C229.353 233.658 224.143 231.5 218.711 231.5C213.28 231.5 208.07 233.658 204.229 237.499C200.389 241.34 198.231 246.549 198.231 251.981C198.231 254.343 198.777 256.705 199.514 258.808H157.269C157.269 255.053 157.31 248.567 169.64 248.567L184.577 250.274V217.846C184.577 180.667 209.481 202.622 225.538 163.231ZM158.976 299.769C185.464 363.109 221.702 395.346 266.5 395.346C311.312 395.346 347.549 363.123 374.024 299.769H344.149C323.122 345.032 296.989 368.038 266.5 368.038C236.011 368.038 209.891 345.032 188.837 299.769H158.99H158.976ZM101.37 340.307C100.793 340.412 100.223 340.553 99.6636 340.731C96.581 341.422 93.8334 343.16 91.8889 345.65C89.9444 348.14 88.9235 351.226 88.9999 354.385V395.346C88.9999 398.967 90.4385 402.44 92.9991 405.001C95.5597 407.561 99.0326 409 102.654 409H143.615C147.237 409 150.709 407.561 153.27 405.001C155.831 402.44 157.269 398.967 157.269 395.346C157.269 391.725 155.831 388.252 153.27 385.691C150.709 383.131 147.237 381.692 143.615 381.692H116.308V354.385C116.377 352.443 116.03 350.509 115.292 348.712C114.554 346.915 113.441 345.296 112.027 343.963C110.613 342.631 108.931 341.616 107.093 340.985C105.256 340.355 103.304 340.124 101.37 340.307V340.307ZM429.063 340.307C428.485 340.412 427.915 340.553 427.356 340.731C424.273 341.422 421.526 343.16 419.581 345.65C417.637 348.14 416.616 351.226 416.692 354.385V381.692H389.385C385.763 381.692 382.29 383.131 379.73 385.691C377.169 388.252 375.731 391.725 375.731 395.346C375.731 398.967 377.169 402.44 379.73 405.001C382.29 407.561 385.763 409 389.385 409H430.346C433.967 409 437.44 407.561 440.001 405.001C442.561 402.44 444 398.967 444 395.346V354.385C444.069 352.443 443.723 350.509 442.984 348.712C442.246 346.915 441.133 345.296 439.719 343.963C438.305 342.631 436.623 341.616 434.786 340.985C432.948 340.355 430.997 340.124 429.063 340.307V340.307Z" fill="#1E1E1E"/>
</g>
<defs>
<clipPath id="clip0_74_42">
<rect width="355" height="355" fill="white" transform="translate(89 54)"/>
</clipPath>
</defs>
</svg>
