<svg width="580" height="463" viewBox="0 0 580 463" fill="none" xmlns="http://www.w3.org/2000/svg">
<path d="M396.707 159.688C391.161 132.533 376.364 108.145 354.839 90.6852C333.315 73.2258 306.399 63.7773 278.684 63.9524C250.97 64.1276 224.175 73.9155 202.873 91.6457C181.571 109.376 167.083 133.949 161.881 161.172C139.791 165.104 119.976 177.17 106.343 194.991C92.7111 212.812 86.251 235.094 88.2371 257.443C90.2233 279.792 100.511 300.586 117.073 315.723C133.634 330.861 155.266 339.244 177.703 339.219H195.656V315.281H177.703C160.619 315.326 144.187 308.721 131.885 296.866C119.583 285.01 112.377 268.833 111.791 251.758C111.204 234.684 117.284 218.051 128.744 205.379C140.203 192.708 156.143 184.992 173.191 183.864L183.209 183.182L184.286 173.212C186.71 150.948 196.869 130.241 212.991 114.697C229.114 99.153 250.179 89.7581 272.516 88.149C294.854 86.5398 317.048 92.8184 335.232 105.891C353.416 118.963 366.437 138.001 372.028 159.688H396.707Z" fill="#1E1E1E"/>
<path d="M387.156 327.25C378.697 327.288 370.529 330.339 364.116 335.856L315.033 306.4C315.116 305.371 315.344 304.366 315.344 303.312C315.344 302.259 315.116 301.278 315.033 300.237L364.128 270.793C370.541 276.3 378.704 279.342 387.156 279.375C394.618 279.427 401.912 277.17 408.04 272.913C414.168 268.656 418.829 262.608 421.383 255.597C423.937 248.587 424.261 240.958 422.308 233.756C420.355 226.555 416.223 220.134 410.477 215.374C404.731 210.614 397.653 207.748 390.214 207.17C382.775 206.591 375.34 208.328 368.927 212.142C362.514 215.956 357.438 221.661 354.396 228.474C351.353 235.287 350.493 242.874 351.932 250.195L305.111 278.286C300.131 273.163 293.736 269.642 286.745 268.173C279.753 266.704 272.482 267.355 265.862 270.041C259.242 272.727 253.574 277.327 249.583 283.253C245.591 289.178 243.458 296.159 243.457 303.304C243.455 310.448 245.585 317.43 249.573 323.358C253.562 329.285 259.228 333.888 265.846 336.577C272.465 339.267 279.736 339.921 286.728 338.455C293.72 336.99 300.117 333.472 305.099 328.351L351.932 356.454C350.558 363.709 351.455 371.212 354.503 377.939C357.55 384.665 362.598 390.288 368.958 394.039C375.319 397.791 382.682 399.488 390.043 398.901C397.404 398.313 404.405 395.469 410.09 390.755C415.774 386.042 419.867 379.69 421.808 372.565C423.749 365.44 423.445 357.89 420.937 350.945C418.429 343.999 413.839 337.997 407.793 333.756C401.747 329.516 394.541 327.244 387.156 327.25V327.25ZM387.156 231.5C389.524 231.5 391.838 232.202 393.806 233.517C395.774 234.832 397.308 236.702 398.214 238.889C399.12 241.076 399.357 243.482 398.895 245.804C398.433 248.125 397.293 250.258 395.62 251.932C393.946 253.606 391.813 254.746 389.491 255.208C387.17 255.669 384.763 255.432 382.576 254.526C380.389 253.621 378.52 252.086 377.205 250.118C375.89 248.15 375.188 245.836 375.188 243.469C375.188 240.294 376.449 237.25 378.693 235.006C380.938 232.761 383.982 231.5 387.156 231.5ZM279.438 315.281C277.07 315.281 274.756 314.579 272.788 313.264C270.82 311.949 269.286 310.08 268.38 307.893C267.474 305.706 267.237 303.299 267.699 300.977C268.161 298.656 269.301 296.523 270.974 294.849C272.648 293.175 274.781 292.036 277.103 291.574C279.424 291.112 281.831 291.349 284.018 292.255C286.205 293.161 288.074 294.695 289.389 296.663C290.704 298.631 291.406 300.945 291.406 303.312C291.406 306.487 290.145 309.531 287.901 311.776C285.656 314.02 282.612 315.281 279.438 315.281ZM387.156 375.125C384.789 375.125 382.475 374.423 380.507 373.108C378.539 371.793 377.005 369.923 376.099 367.736C375.193 365.549 374.956 363.143 375.418 360.821C375.879 358.5 377.019 356.367 378.693 354.693C380.367 353.019 382.5 351.879 384.821 351.417C387.143 350.956 389.55 351.193 391.737 352.099C393.924 353.004 395.793 354.539 397.108 356.507C398.423 358.475 399.125 360.789 399.125 363.156C399.125 366.331 397.864 369.375 395.62 371.619C393.375 373.864 390.331 375.125 387.156 375.125Z" fill="#1E1E1E"/>
</svg>
