<svg width="580" height="463" viewBox="0 0 580 463" fill="none" xmlns="http://www.w3.org/2000/svg">
<path d="M225.969 166.969V250.446C226.001 262.661 229.484 274.619 236.017 284.94C242.55 295.261 251.867 303.526 262.894 308.783L290.5 321.844L318.106 308.77C329.133 303.514 338.45 295.248 344.983 284.927C351.516 274.606 354.999 262.649 355.031 250.433V166.969H225.969ZM329.219 250.446C329.196 257.772 327.104 264.942 323.183 271.13C319.262 277.318 313.673 282.273 307.059 285.422L290.5 293.282L273.941 285.448C267.323 282.297 261.731 277.338 257.81 271.145C253.889 264.952 251.799 257.776 251.781 250.446V192.781H329.219V250.446Z" fill="#1E1E1E"/>
<path d="M476.531 249.749C481.37 244.909 484.088 238.345 484.088 231.5C484.088 224.655 481.37 218.091 476.531 213.251L401.842 138.562L439.27 101.624C444.791 102.999 450.611 102.513 455.827 100.241C461.043 97.9702 465.364 94.041 468.119 89.0633C470.874 84.0857 471.909 78.338 471.064 72.712C470.218 67.086 467.54 61.8963 463.444 57.9481C459.347 53.9999 454.063 51.5139 448.409 50.876C442.756 50.238 437.05 51.4837 432.177 54.4198C427.304 57.3558 423.537 61.8181 421.459 67.1142C419.381 72.4103 419.109 78.2441 420.685 83.7105L383.593 120.313L308.749 45.4564C303.909 40.6173 297.345 37.8989 290.5 37.8989C283.656 37.8989 277.091 40.6173 272.251 45.4564L197.562 120.171L160.624 82.7168C161.992 77.1948 161.498 71.376 159.221 66.1631C156.944 60.9502 153.01 56.6345 148.029 53.8856C143.049 51.1367 137.3 50.1082 131.676 50.9597C126.051 51.8112 120.865 54.4951 116.921 58.595C112.978 62.695 110.498 67.9817 109.865 73.6352C109.233 79.2886 110.484 84.9927 113.425 89.8625C116.365 94.7323 120.83 98.4956 126.128 100.569C131.425 102.642 137.259 102.908 142.724 101.328L179.313 138.407L104.456 213.251C99.6174 218.091 96.8989 224.655 96.8989 231.5C96.8989 238.345 99.6174 244.909 104.456 249.749L179.313 324.593L142.724 361.672C137.27 360.102 131.452 360.374 126.169 362.446C120.886 364.519 116.434 368.276 113.504 373.136C110.574 377.995 109.328 383.686 109.96 389.325C110.593 394.965 113.068 400.238 117.002 404.328C120.935 408.418 126.109 411.096 131.719 411.947C137.33 412.798 143.064 411.774 148.034 409.035C153.004 406.296 156.931 401.994 159.208 396.795C161.484 391.597 161.982 385.793 160.624 380.283L197.562 342.855L272.251 417.531C277.091 422.37 283.656 425.088 290.5 425.088C297.345 425.088 303.909 422.37 308.749 417.531L383.606 342.687L420.673 379.289C419.102 384.743 419.374 390.561 421.446 395.844C423.519 401.127 427.276 405.579 432.136 408.509C436.995 411.439 442.686 412.685 448.325 412.053C453.965 411.42 459.238 408.945 463.328 405.011C467.418 401.078 470.096 395.904 470.947 390.294C471.798 384.683 470.774 378.949 468.035 373.979C465.296 369.009 460.994 365.082 455.795 362.805C450.597 360.529 444.793 360.031 439.283 361.388L401.855 324.438L476.531 249.749ZM290.5 399.281L122.719 231.5L290.5 63.7188L458.281 231.5L290.5 399.281Z" fill="#1E1E1E"/>
</svg>
