<?xml version="1.0" encoding="utf-8"?>
<!-- Generator: Adobe Illustrator 16.0.3, SVG Export Plug-In . SVG Version: 6.00 Build 0)  -->
<!DOCTYPE svg PUBLIC "-//W3C//DTD SVG 1.1//EN" "http://www.w3.org/Graphics/SVG/1.1/DTD/svg11.dtd">
<svg version="1.1" id="Capa_1" xmlns="http://www.w3.org/2000/svg" xmlns:xlink="http://www.w3.org/1999/xlink" x="0px" y="0px"
	 width="612px" height="792px" viewBox="0 0 612 792" enable-background="new 0 0 612 792" xml:space="preserve">
<g>
	<path fill="#424242" d="M136.91,377.406c-0.369,0-0.743-0.036-1.119-0.108l-10.872-2.117c-4.027-1.155-8.091-4.795-8.091-10.323
		l0.016-11.152c0.291-3.794,3.544-9.437,11.322-9.437h15.364c10.103,0,23.191,12.488,25.713,14.991
		c2.304,2.287,2.317,6.01,0.029,8.313c-2.287,2.305-6.01,2.314-8.313,0.03c-5.645-5.589-13.996-11.577-17.429-11.577h-14.943v7.912
		l9.429,1.816c3.188,0.614,5.275,3.695,4.66,6.885C142.134,375.45,139.67,377.406,136.91,377.406z"/>
	<path fill="#424242" d="M159.371,518.809c-1.762,0-4.72-0.369-7.096-2.505c-1.865-1.677-2.892-4.058-2.892-6.707v-33.221h11.758
		v30.648h33.758v-18.716h11.758v21.404c0.005,0.838-0.169,3.881-2.634,6.361c-1.228,1.235-3.424,2.709-6.921,2.709h-36.92
		C159.957,518.797,159.683,518.809,159.371,518.809z"/>
	<path fill="#424242" d="M167.603,367.536l-2.453-11.499c0.835-0.178,20.695-4.363,42.526-4.363h101.978v11.759H207.676
		C187.128,363.433,167.796,367.495,167.603,367.536z"/>
	<path fill="#424242" d="M446.025,490.529h-278.83l-1.27-0.656c-4.411-2.278-18.92-10.485-20.396-20.408
		c-3.421-22.973-4.562-62.648-4.562-71.247c0-14.245,18.426-37.331,23.147-43.012c7.889-14.997,32.361-61.197,37.082-66.201
		c5.443-5.773,18.675-9.685,21.272-10.41l0.612-0.136c1.108-0.185,27.761-4.532,83.032-4.532c0.168,0,0.334,0.007,0.499,0.017
		c0.167-0.01,0.33-0.017,0.496-0.017c55.271,0,81.926,4.347,83.035,4.532l0.611,0.136c2.597,0.725,15.828,4.637,21.271,10.41
		c4.722,5.004,29.192,51.204,37.081,66.201c4.721,5.681,23.147,28.767,23.147,43.012c0,8.599-1.141,48.271-4.561,71.249
		c-1.48,9.923-15.987,18.128-20.398,20.406L446.025,490.529z M170.096,478.771h273.025c6.487-3.595,12.603-8.76,12.941-11.039
		c3.324-22.33,4.433-61.1,4.433-69.515c0-7.686-12.166-25.646-20.805-35.944l-0.406-0.484l-0.294-0.559
		c-12.849-24.441-32.373-60.518-35.555-64.197c-2.289-2.426-10.49-5.582-15.526-7.024c-3.063-0.472-29.668-4.317-80.646-4.325
		c-0.188,0.014-0.36,0.024-0.538,0.027l-0.115,0.003l-0.115-0.003c-0.184-0.003-0.363-0.013-0.54-0.027
		c-50.964,0.008-77.564,3.851-80.641,4.325c-5.045,1.448-13.255,4.611-15.565,7.062c-3.146,3.64-22.671,39.717-35.521,64.16
		l-0.293,0.558l-0.407,0.485c-8.638,10.298-20.805,28.258-20.805,35.944c0,8.415,1.108,47.188,4.434,69.517
		C157.501,470.027,163.613,475.191,170.096,478.771z"/>
	<path fill="#424242" d="M476.312,377.406c-2.763,0-5.225-1.955-5.766-4.768c-0.615-3.189,1.472-6.271,4.66-6.885l9.431-1.817v-7.91
		h-14.943c-3.436,0-11.787,5.988-17.431,11.58c-2.307,2.283-6.026,2.266-8.313-0.036c-2.285-2.305-2.272-6.023,0.029-8.31
		c2.521-2.503,15.607-14.991,25.715-14.991h15.363c7.778,0,11.031,5.643,11.322,9.437l0.016,0.446v10.706
		c0,5.528-4.064,9.168-8.092,10.323l-0.509,0.122l-10.363,1.996C477.055,377.37,476.681,377.406,476.312,377.406z"/>
	<path fill="#424242" d="M453.85,518.809c-0.311,0-0.583-0.012-0.812-0.025h-36.92c-3.495,0-5.691-1.473-6.919-2.707
		c-2.465-2.48-2.639-5.525-2.634-6.399v-21.368h11.758v18.716h33.759v-30.648h11.758v33.221c0,2.649-1.027,5.03-2.89,6.706
		C458.571,518.439,455.612,518.809,453.85,518.809z"/>
	<path fill="#424242" d="M445.621,367.536c-0.194-0.041-19.525-4.104-40.076-4.104H303.568v-11.759h101.977
		c21.834,0,41.693,4.185,42.528,4.363L445.621,367.536z"/>
	<g>
		<path fill="#424242" d="M323.506,430.026H213.141c-16.633,0-45.601-8.087-46.826-8.432c-3.125-0.878-4.947-4.124-4.068-7.249
			c0.877-3.127,4.127-4.943,7.249-4.07c0.286,0.08,28.633,7.992,43.646,7.992h110.365c3.246,0,5.879,2.633,5.879,5.879
			C329.385,427.394,326.752,430.026,323.506,430.026z"/>
		<path fill="#424242" d="M245.71,430.026c-1.859,0-3.688-0.88-4.829-2.521l-9.977-14.326c-0.163-0.227-4.445-6.074-13.741-8.813
			c-10.157-2.99-22.314-6.422-29.576-8.472l-2.78-0.785c-3.297-0.933-5.264-0.244-5.748-0.034l-0.49,0.387l-0.257-0.005
			l-9.562,4.215c-2.971,1.316-6.44-0.035-7.75-3.006c-1.311-2.971,0.036-6.442,3.006-7.751l9.311-4.106
			c1.764-0.947,7.039-3.172,14.687-1.015l2.778,0.784c7.287,2.057,19.483,5.499,29.703,8.509
			c13.464,3.964,19.822,13.013,20.086,13.395l9.96,14.304c1.855,2.664,1.2,6.329-1.464,8.185
			C248.041,429.685,246.87,430.026,245.71,430.026z"/>
		<path fill="#424242" d="M400.081,430.026H289.717c-3.247,0-5.879-2.633-5.879-5.88c0-3.246,2.633-5.879,5.879-5.879h110.364
			c15.032,0,43.361-7.912,43.646-7.992c3.125-0.875,6.372,0.943,7.25,4.068c0.879,3.127-0.943,6.373-4.068,7.251
			C445.684,421.939,416.716,430.026,400.081,430.026z"/>
		<path fill="#424242" d="M367.512,430.026c-1.16,0-2.331-0.342-3.355-1.055c-2.664-1.855-3.319-5.521-1.464-8.185l9.978-14.326
			c0.248-0.359,6.606-9.408,20.066-13.373c10.249-3.019,22.467-6.466,29.767-8.527l2.715-0.766
			c7.65-2.159,12.923,0.067,14.688,1.015l9.313,4.106c2.971,1.309,4.317,4.778,3.007,7.751c-1.311,2.971-4.775,4.322-7.75,3.006
			l-10.345-4.611c-0.534-0.225-2.488-0.862-5.717,0.047l-2.717,0.769c-7.276,2.054-19.453,5.49-29.636,8.488
			c-9.296,2.738-13.579,8.586-13.756,8.834l-9.965,14.305C371.197,429.146,369.37,430.026,367.512,430.026z"/>
		<path fill="#424242" d="M306.293,428.744c-3.247,0-5.879-2.634-5.879-5.88v-9.238c0-3.247,2.633-5.88,5.879-5.88
			c3.246,0,5.879,2.633,5.879,5.88v9.238C312.173,426.11,309.539,428.744,306.293,428.744z"/>
	</g>
	<g>
		<path fill="#424242" d="M376.633,459.678H235.956c-3.246,0-5.878-2.633-5.878-5.88c0-3.246,2.632-5.879,5.878-5.879h140.677
			c3.247,0,5.88,2.633,5.88,5.879C382.513,457.045,379.88,459.678,376.633,459.678z"/>
		<path fill="#424242" d="M196.61,459.678c-0.285,0-0.575-0.02-0.868-0.064l-11.338-1.68c-3.212-0.476-5.43-3.465-4.954-6.677
			c0.474-3.21,3.454-5.442,6.676-4.953l11.338,1.68c3.211,0.476,5.43,3.464,4.954,6.676
			C201.988,457.579,199.478,459.678,196.61,459.678z"/>
	</g>
	<g>
		<path fill="#424242" d="M415.979,459.678c-2.867,0-5.376-2.099-5.808-5.019c-0.476-3.212,1.742-6.2,4.954-6.676l11.338-1.68
			c3.229-0.489,6.202,1.743,6.676,4.953c0.477,3.212-1.741,6.201-4.954,6.677l-11.338,1.68
			C416.555,459.658,416.264,459.678,415.979,459.678z"/>
	</g>
</g>
</svg>
