<?xml version="1.0" encoding="utf-8"?>
<!-- Generator: Adobe Illustrator 16.0.3, SVG Export Plug-In . SVG Version: 6.00 Build 0)  -->
<!DOCTYPE svg PUBLIC "-//W3C//DTD SVG 1.1//EN" "http://www.w3.org/Graphics/SVG/1.1/DTD/svg11.dtd">
<svg version="1.1" id="Capa_1" xmlns="http://www.w3.org/2000/svg" xmlns:xlink="http://www.w3.org/1999/xlink" x="0px" y="0px"
	 width="612px" height="792px" viewBox="0 0 612 792" enable-background="new 0 0 612 792" xml:space="preserve">
<g>
	<path fill="#333333" d="M259.5,356.5c1.381,0,2.5-1.119,2.5-2.5v-9h9c1.381,0,2.5-1.119,2.5-2.5s-1.119-2.5-2.5-2.5h-11.5
		c-1.381,0-2.5,1.119-2.5,2.5V354C257,355.381,258.119,356.5,259.5,356.5z"/>
	<path fill="#333333" d="M259.5,424H271c1.381,0,2.5-1.119,2.5-2.5s-1.119-2.5-2.5-2.5h-9v-9c0-1.381-1.119-2.5-2.5-2.5
		s-2.5,1.119-2.5,2.5v11.5C257,422.881,258.119,424,259.5,424z"/>
	<path fill="#333333" d="M344,424h11.5c1.381,0,2.5-1.119,2.5-2.5V410c0-1.381-1.119-2.5-2.5-2.5s-2.5,1.119-2.5,2.5v9h-9
		c-1.381,0-2.5,1.119-2.5,2.5S342.619,424,344,424z"/>
	<path fill="#333333" d="M344,345h9v9c0,1.381,1.119,2.5,2.5,2.5s2.5-1.119,2.5-2.5v-11.5c0-1.381-1.119-2.5-2.5-2.5H344
		c-1.381,0-2.5,1.119-2.5,2.5S342.619,345,344,345z"/>
	<path fill="#333333" d="M344.678,427.925c-7.17-1.687-16.17-7.695-20.164-10.55c0.35-0.437,0.662-0.859,0.955-1.256
		c0.199-0.271,0.393-0.533,0.586-0.781c1.713-2.184,4.748-7.338,7.2-11.585c0.135-0.233,0.246-0.427,0.33-0.571
		c0.604-0.58,4.671-4.793,4.313-12.746c-0.193-4.316-0.865-6.029-1.597-7.542c-0.217-0.448-0.217-0.448-0.228-0.846
		c-0.045-1.622-0.008-3.447,0.032-5.378l0.026-1.207c0.204-9.006,0.457-20.215-7.269-27.255c-1.7-1.549-8.304-6.602-21.906-6.602
		c-9.352,0-17.554,2.48-21.941,6.635c-7.665,7.258-7.421,18.529-7.226,27.585l0.018,0.845c0.038,1.837,0.078,3.737,0.033,5.379
		c-0.011,0.399-0.011,0.399-0.229,0.85c-0.73,1.51-1.401,3.222-1.596,7.542c-0.359,7.989,3.731,12.196,4.321,12.759
		c0.073,0.128,0.165,0.29,0.274,0.48c2.525,4.427,5.637,9.761,7.309,11.732c0.231,0.272,0.458,0.58,0.702,0.907
		c0.275,0.371,0.579,0.775,0.922,1.197c-4.135,2.912-13.031,8.749-20.082,10.407C253.702,431.631,252,440.85,252,444.641V450
		c0,1.381,1.119,2.5,2.5,2.5s2.5-1.119,2.5-2.5v-5.359c0-5.496,4.96-9.814,13.608-11.849c8.601-2.022,19-9.132,22.813-11.893
		c2.707,1.617,6.788,2.896,13.37,2.896c6.947,0,11.142-1.319,13.9-3.011c3.648,2.68,14.12,9.955,22.842,12.007
		c8.684,2.042,13.467,6.25,13.467,11.849V450c0,1.381,1.119,2.5,2.5,2.5s2.5-1.119,2.5-2.5v-5.359
		C362,440.84,360.313,431.602,344.678,427.925z M292.635,413.336c-0.312-0.418-0.604-0.809-0.899-1.157
		c-1.053-1.241-3.333-4.934-6.779-10.976c-0.633-1.107-0.77-1.348-1.171-1.631l-0.031-0.025c-0.375-0.385-2.994-3.284-2.742-8.881
		c0.164-3.651,0.662-4.681,1.102-5.589c0.401-0.83,0.688-1.522,0.726-2.889c0.048-1.763,0.008-3.725-0.032-5.621l-0.018-0.849
		c-0.174-8.069-0.392-18.112,5.665-23.846c2.564-2.429,8.95-5.266,18.503-5.266c9.381,0,15.727,2.737,18.539,5.298
		c6.043,5.506,5.817,15.454,5.638,23.446l-0.027,1.217c-0.041,1.994-0.08,3.877-0.031,5.619c0.037,1.365,0.324,2.057,0.726,2.888
		c0.44,0.909,0.938,1.94,1.102,5.586c0.266,5.898-2.657,8.795-2.717,8.857l-0.096,0.084c-0.365,0.267-0.509,0.515-1.165,1.651
		c-1.26,2.181-5.092,8.815-6.806,11.002c-0.224,0.285-0.446,0.586-0.677,0.898c-1.949,2.646-4.158,5.644-14.652,5.644
		C296.698,418.796,294.445,415.769,292.635,413.336z"/>
</g>
</svg>
