<?xml version="1.0" encoding="utf-8"?>
<!-- Generator: Adobe Illustrator 16.0.3, SVG Export Plug-In . SVG Version: 6.00 Build 0)  -->
<!DOCTYPE svg PUBLIC "-//W3C//DTD SVG 1.1//EN" "http://www.w3.org/Graphics/SVG/1.1/DTD/svg11.dtd">
<svg version="1.1" id="Capa_1" xmlns="http://www.w3.org/2000/svg" xmlns:xlink="http://www.w3.org/1999/xlink" x="0px" y="0px"
	 width="612px" height="792px" viewBox="0 0 612 792" enable-background="new 0 0 612 792" xml:space="preserve">
<g>
	<path fill="none" stroke="#1D1D1B" stroke-width="19" stroke-linecap="round" stroke-linejoin="round" stroke-miterlimit="10" d="
		M532,293.728C532,474.622,439.967,557.837,307,621C174.034,557.837,82,474.622,82,293.728V171h450V293.728z"/>
	<path fill="none" stroke="#1D1D1B" stroke-width="19" stroke-linecap="round" stroke-linejoin="round" stroke-miterlimit="10" d="
		M209.5,411c0,49.746,39.644,90,88.637,90"/>
	<path fill="none" stroke="#1D1D1B" stroke-width="19" stroke-linecap="round" stroke-linejoin="round" stroke-miterlimit="10" d="
		M404.5,411c0,49.746-39.645,90-88.637,90"/>
	<path fill="none" stroke="#1D1D1B" stroke-width="19" stroke-linecap="round" stroke-linejoin="round" stroke-miterlimit="10" d="
		M262,447c0,29.848,18,54,45,54"/>
	<path fill="none" stroke="#1D1D1B" stroke-width="19" stroke-linecap="round" stroke-linejoin="round" stroke-miterlimit="10" d="
		M262,447c0-39.797,32.203-72,72-72"/>
	<path fill="none" stroke="#1D1D1B" stroke-width="19" stroke-linecap="round" stroke-linejoin="round" stroke-miterlimit="10" d="
		M352,465c0,19.898-18,36-45,36"/>
	<path fill="none" stroke="#1D1D1B" stroke-width="19" stroke-linecap="round" stroke-linejoin="round" stroke-miterlimit="10" d="
		M334,375c-18,54,18,54,18,90"/>
	<path fill="none" stroke="#1D1D1B" stroke-width="19" stroke-linecap="round" stroke-linejoin="round" stroke-miterlimit="10" d="
		M209.5,411c0-72,88.637-90,53.182-180"/>
	<path fill="none" stroke="#1D1D1B" stroke-width="19" stroke-linecap="round" stroke-linejoin="round" stroke-miterlimit="10" d="
		M333.591,339c0-59.695-31.715-108-70.909-108"/>
	<path fill="none" stroke="#1D1D1B" stroke-width="19" stroke-linecap="round" stroke-linejoin="round" stroke-miterlimit="10" d="
		M404.5,411c0-54-35.454-54-35.454-108"/>
	<path fill="none" stroke="#1D1D1B" stroke-width="19" stroke-linecap="round" stroke-linejoin="round" stroke-miterlimit="10" d="
		M369.046,303c-17.728,0-17.728,36-35.455,36"/>
	
		<line fill="none" stroke="#1D1D1B" stroke-width="19" stroke-linecap="round" stroke-linejoin="round" stroke-miterlimit="10" x1="315.863" y1="501" x2="298.137" y2="501"/>
</g>
</svg>
