<?xml version="1.0" encoding="utf-8"?>
<!-- Generator: Adobe Illustrator 16.0.3, SVG Export Plug-In . SVG Version: 6.00 Build 0)  -->
<!DOCTYPE svg PUBLIC "-//W3C//DTD SVG 1.1//EN" "http://www.w3.org/Graphics/SVG/1.1/DTD/svg11.dtd">
<svg version="1.1" id="Capa_1" xmlns="http://www.w3.org/2000/svg" xmlns:xlink="http://www.w3.org/1999/xlink" x="0px" y="0px"
	 width="595.28px" height="841.89px" viewBox="0 0 595.28 841.89" enable-background="new 0 0 595.28 841.89" xml:space="preserve">
<g>
	<path fill="#434A53" d="M291.604,517.063c-0.308,0-0.612-0.038-0.913-0.113c-27.966-7.101-52.037-27.185-64.39-53.716
		c-0.864-1.856-0.06-4.058,1.796-4.922c1.875-0.879,4.065-0.06,4.929,1.796c11.286,24.239,33.132,42.656,58.571,49.419
		c22.128-5.974,40.973-19.852,53.145-39.147c1.09-1.729,3.389-2.247,5.109-1.157c1.736,1.09,2.254,3.381,1.157,5.109
		c-13.345,21.174-34.112,36.307-58.477,42.618C292.228,517.024,291.917,517.063,291.604,517.063z M220.723,402.777
		c-2.047,0-3.708-1.653-3.708-3.705v-51.688c0-1.684,1.134-3.156,2.761-3.584l70.882-18.755c0.616-0.165,1.27-0.165,1.894,0
		l71.103,18.755c1.623,0.428,2.758,1.9,2.758,3.584v48.637c0,2.052-1.653,3.705-3.704,3.705c-2.052,0-3.704-1.653-3.704-3.705
		V350.24l-67.399-17.778l-67.174,17.778v48.832C224.431,401.124,222.77,402.777,220.723,402.777z"/>
	<path fill="#434A53" d="M213.855,446.408c-1.217,0-2.408-0.602-3.118-1.698l-9.163-14.179c-1.108-1.714-0.62-4.005,1.085-5.117
		l74.158-48.419c1.724-1.127,4.012-0.639,5.132,1.074s0.639,4.013-1.075,5.132l-71.069,46.405l7.161,11.076
		c1.112,1.721,0.616,4.02-1.101,5.124C215.242,446.213,214.543,446.408,213.855,446.408z"/>
	<path fill="#434A53" d="M230.213,449.676c-1.217,0-2.412-0.601-3.118-1.705l-6.327-9.813c-1.112-1.721-0.616-4.012,1.104-5.124
		c1.725-1.104,4.016-0.616,5.125,1.112l6.327,9.813c1.112,1.721,0.616,4.013-1.104,5.125
		C231.596,449.48,230.9,449.676,230.213,449.676z"/>
	<path fill="#434A53" d="M257.909,454.913c-1.266,0-2.502-0.653-3.193-1.825c-1.044-1.759-0.462-4.035,1.304-5.08
		c5.305-3.141,11.323-4.854,17.887-5.094c1.908-0.113,3.772,1.518,3.843,3.568c0.075,2.044-1.522,3.765-3.569,3.84
		c-5.312,0.195-10.155,1.57-14.389,4.072C259.202,454.74,258.551,454.913,257.909,454.913z"/>
	<path fill="#434A53" d="M355.833,463.419c-1.51,0-2.938-0.939-3.486-2.442c-4.944-13.569-12.601-23.811-22.752-30.445
		c-1.239-0.842-2.982-1.668-4.726-1.271c-1.646,0.414-2.683,1.826-3.262,2.931c-2.246,4.493-5.146,7.349-9.106,8.927
		c-1.886,0.767-4.058-0.165-4.816-2.066s0.165-4.058,2.066-4.816c2.231-0.895,3.802-2.518,5.26-5.418
		c1.841-3.523,4.688-5.897,8.055-6.747c2.404-0.594,6.236-0.714,10.647,2.292c11.458,7.491,20.092,18.973,25.606,34.075
		c0.699,1.924-0.293,4.05-2.216,4.756C356.683,463.344,356.254,463.419,355.833,463.419z"/>
	<path fill="#434A53" d="M389.42,438.33c-1.164,0-2.314-0.541-3.035-1.57c-11.887-16.898-29.387-30.183-52.026-39.492
		c-5.462-2.255-8.558-7.439-10.406-11.144c-0.917-1.833-0.173-4.058,1.653-4.974c1.825-0.917,4.064-0.181,4.974,1.652
		c2.104,4.2,4.2,6.62,6.604,7.611c23.962,9.852,42.559,24.007,55.272,42.078c1.172,1.676,0.773,3.99-0.902,5.169
		C390.908,438.112,390.164,438.33,389.42,438.33z"/>
	<path fill="#434A53" d="M304.367,431.14c-1.251,0-2.472-0.639-3.171-1.781c-1.063-1.75-0.511-4.034,1.24-5.094
		c8.727-5.32,11.515-15.839,8.531-32.159c-0.3-1.623,0.512-3.246,1.991-3.982c4.712-2.359,8.784-4.719,12.428-6.86
		c1.781-1.029,4.043-0.436,5.08,1.322c1.036,1.766,0.443,4.043-1.322,5.079c-3.134,1.834-6.561,3.825-10.43,5.839
		c2.697,17.95-1.473,30.423-12.42,37.088C305.693,430.959,305.024,431.14,304.367,431.14z"/>
	<path fill="#434A53" d="M355.833,463.419c-1.525,0-2.953-0.954-3.494-2.472c-0.684-1.932,0.323-4.05,2.255-4.734
		c12.908-4.583,23.33-12.367,31.851-23.804c1.232-1.646,3.547-1.976,5.192-0.759c1.638,1.225,1.983,3.547,0.759,5.192
		c-9.43,12.646-20.986,21.271-35.322,26.358C356.667,463.344,356.246,463.419,355.833,463.419z"/>
	<path fill="#434A53" d="M226.505,452.073c-1.21,0-2.397-0.594-3.111-1.684c-1.116-1.721-0.635-4.012,1.082-5.132l20.72-13.518
		c1.706-1.134,4.005-0.639,5.132,1.075c1.116,1.721,0.635,4.012-1.082,5.132l-20.719,13.518
		C227.902,451.878,227.2,452.073,226.505,452.073z"/>
	<path fill="#434A53" d="M213.855,446.408c-1.21,0-2.397-0.594-3.107-1.684c-1.12-1.713-0.639-4.013,1.074-5.132l27.042-17.665
		c1.713-1.135,4.012-0.639,5.132,1.074s0.639,4.013-1.074,5.132l-27.042,17.665C215.253,446.213,214.55,446.408,213.855,446.408z"/>
	<path fill="#434A53" d="M257.909,454.913c-1.21,0-2.397-0.594-3.107-1.683l-26.389-40.35c-1.12-1.713-0.639-4.013,1.075-5.132
		c1.713-1.112,4.016-0.639,5.132,1.074l26.389,40.35c1.119,1.713,0.638,4.013-1.075,5.132
		C259.311,454.711,258.604,454.913,257.909,454.913z"/>
	<path fill="#434A53" d="M291.609,388.273c-5.865,0-10.929-2.329-14.908-5.147c-1.668-1.187-2.063-3.501-0.879-5.169
		c1.18-1.676,3.49-2.06,5.169-0.887c5.658,4.02,14.641,7.844,27.271-5.02c1.128-1.149,2.871-1.436,4.306-0.722
		c0.714,0.354,1.375,0.714,2.029,1.075l1.69,0.901c1.825,0.924,2.555,3.155,1.63,4.981c-0.932,1.818-3.155,2.54-4.981,1.631
		l-1.382-0.736C304.288,385.884,297.541,388.273,291.609,388.273z"/>
	<path fill="#434A53" d="M295.861,387.958c-0.18,0-0.368-0.016-0.552-0.046c-2.025-0.3-3.422-2.193-3.118-4.215
		c0.556-3.72,0.203-8.272-1.022-13.164c-0.5-1.984,0.707-3.998,2.694-4.501c1.984-0.481,4.005,0.706,4.497,2.697
		c1.484,5.913,1.875,11.316,1.165,16.064C299.25,386.635,297.668,387.958,295.861,387.958z"/>
	<path fill="#434A53" d="M292,463.126c-9.505,0-18.188-5.921-21.456-15.283c-0.672-1.938,0.346-4.05,2.281-4.726
		c1.908-0.691,4.046,0.345,4.722,2.276c2.638,7.559,10.478,11.826,18.285,9.843c4.238-1.06,7.739-3.719,9.606-7.281
		c0.947-1.817,3.201-2.494,5.005-1.563c1.811,0.947,2.517,3.193,1.563,5.005c-2.848,5.432-8.085,9.452-14.374,11.037
		C295.745,462.9,293.855,463.126,292,463.126z"/>
	<path fill="#434A53" d="M274.041,450.322c-0.781,0-1.57-0.24-2.243-0.751c-1.626-1.24-1.942-3.569-0.703-5.2
		c8.303-10.91,19.243-17.83,32.517-20.572c1.42-0.278,2.84,0.255,3.696,1.375c2.51,3.291,4.816,6.777,7.033,10.662
		c1.021,1.78,0.398,4.042-1.375,5.057c-1.766,1.037-4.043,0.405-5.057-1.375c-1.631-2.855-3.307-5.47-5.08-7.935
		c-10.447,2.667-19.13,8.468-25.836,17.282C276.266,449.819,275.161,450.322,274.041,450.322z"/>
	<path fill="#434A53" d="M295.422,450.548c-0.372,0-0.751-0.06-1.123-0.181c-1.954-0.616-3.032-2.705-2.408-4.658
		c1.337-4.208,1.514-9.348,0.526-15.275c-0.334-2.021,1.029-3.93,3.05-4.269c2.025-0.271,3.93,1.037,4.268,3.051
		c1.18,7.101,0.917,13.405-0.781,18.747C298.454,449.541,296.996,450.548,295.422,450.548z"/>
	<path fill="#434A53" d="M262.71,436.151c-1.21,0-2.393-0.594-3.107-1.683l-11.996-18.319c-1.119-1.705-0.642-4.005,1.067-5.124
		l15.921-10.467c1.713-1.127,4.009-0.646,5.136,1.059c1.124,1.714,0.65,4.013-1.063,5.133l-12.83,8.438l7.95,12.135l22.204-14.352
		c1.123-0.781,1.251-2.246,0.672-3.118l-5.489-8.565c-0.402-0.653-1.022-0.864-1.356-0.939c-0.627-0.128-1.285-0.037-1.754,0.286
		c-1.706,1.127-4.009,0.668-5.143-1.037c-1.135-1.698-0.673-4.005,1.033-5.14c2.141-1.42,4.861-1.908,7.45-1.353
		c2.563,0.563,4.711,2.066,6.049,4.238l5.417,8.452c2.859,4.283,1.638,10.295-2.754,13.338l-25.397,16.418
		C264.097,435.956,263.402,436.151,262.71,436.151z"/>
	<path fill="#434A53" d="M256.602,426.992c-1.213,0-2.4-0.602-3.114-1.69c-1.116-1.721-0.627-4.013,1.089-5.133l17.447-11.338
		c1.721-1.112,4.012-0.624,5.132,1.09c1.116,1.721,0.627,4.012-1.089,5.132l-17.447,11.338
		C257.996,426.797,257.293,426.992,256.602,426.992z"/>
	<path fill="#434A53" d="M365.165,439.908c-1.262,0-2.434-0.639-3.05-1.879l-0.219-0.436c-0.916-1.833-0.173-4.058,1.653-4.974
		c1.826-0.925,4.058-0.188,4.975,1.652c0.916,1.834,0.285,4.275-1.548,5.192C366.391,439.766,365.767,439.908,365.165,439.908z"/>
	<path fill="#434A53" d="M337.252,416.57c-1.263,0-2.435-0.639-3.051-1.879l-0.218-0.436c-0.917-1.833-0.173-4.058,1.652-4.974
		c1.818-0.925,4.058-0.188,4.975,1.652c0.917,1.834,0.285,4.275-1.548,5.192C338.477,416.428,337.853,416.57,337.252,416.57z"/>
</g>
</svg>
