<?xml version="1.0" encoding="utf-8"?>
<!-- Generator: Adobe Illustrator 16.0.3, SVG Export Plug-In . SVG Version: 6.00 Build 0)  -->
<!DOCTYPE svg PUBLIC "-//W3C//DTD SVG 1.1//EN" "http://www.w3.org/Graphics/SVG/1.1/DTD/svg11.dtd">
<svg version="1.1" id="Capa_1" xmlns="http://www.w3.org/2000/svg" xmlns:xlink="http://www.w3.org/1999/xlink" x="0px" y="0px"
	 width="612px" height="792px" viewBox="0 0 612 792" enable-background="new 0 0 612 792" xml:space="preserve">
<g>
	
		<path fill="none" stroke="#1D1D1B" stroke-width="22.5" stroke-linecap="round" stroke-linejoin="round" stroke-miterlimit="10" d="
		M201,172h300c16.582,0,30,13.418,30,30v390c0,16.582-13.418,30-30,30H201"/>
	
		<circle fill="none" stroke="#1D1D1B" stroke-width="22.5" stroke-linecap="round" stroke-linejoin="round" stroke-miterlimit="10" cx="306" cy="232" r="60"/>
	
		<path fill="none" stroke="#1D1D1B" stroke-width="22.5" stroke-linecap="round" stroke-linejoin="round" stroke-miterlimit="10" d="
		M141,322c0-16.582,13.418-30,30-30h90h90c33.164,0,60,26.836,60,60v30h30c16.582,0,30,13.418,30,30s-13.418,30-30,30h-60
		c-16.582,0-30-13.418-30-30"/>
	
		<path fill="none" stroke="#1D1D1B" stroke-width="22.5" stroke-linecap="round" stroke-linejoin="round" stroke-miterlimit="10" d="
		M351,367v225c0,16.582-13.418,30-30,30s-30-13.418-30-30V457.003h-1.5l-88.5,90h-90c-16.582,0-30-13.417-30-30
		c0-16.581,13.418-30,30-30h65.137l72.427-72.427V352H201v30c0,16.582-13.418,30-30,30s-30-13.418-30-30v-60"/>
	
		<path fill="none" stroke="#1D1D1B" stroke-width="22.5" stroke-linecap="round" stroke-linejoin="round" stroke-miterlimit="10" d="
		M171,202c0-16.582,13.418-30,30-30"/>
	
		<path fill="none" stroke="#1D1D1B" stroke-width="22.5" stroke-linecap="round" stroke-linejoin="round" stroke-miterlimit="10" d="
		M171,592c0,16.582,13.418,30,30,30"/>
	
		<line fill="none" stroke="#1D1D1B" stroke-width="22.5" stroke-linecap="round" stroke-linejoin="round" stroke-miterlimit="10" x1="171" y1="202" x2="171" y2="292"/>
	
		<line fill="none" stroke="#1D1D1B" stroke-width="22.5" stroke-linecap="round" stroke-linejoin="round" stroke-miterlimit="10" x1="171" y1="592" x2="171" y2="562"/>
	
		<line fill="none" stroke="#1D1D1B" stroke-width="22.5" stroke-linecap="round" stroke-linejoin="round" stroke-miterlimit="10" x1="171" y1="412" x2="171" y2="487"/>
</g>
</svg>
